<svg width="251" height="251" viewBox="0 0 251 251" fill="none" xmlns="http://www.w3.org/2000/svg">
<g clip-path="url(#clip0_232_97)">
<g filter="url(#filter0_d_232_97)">
<rect x="-4" width="258.217" height="251.354" rx="26" fill="white"/>
</g>
<path d="M86.9771 213H84.5695L90.8008 195.935H93.3736L99.6285 213H97.1974L95.6631 208.751H88.4877L86.9771 213ZM91.7922 199.617L89.1958 206.745H94.9786L92.3587 199.617C92.2406 199.286 92.1226 198.885 92.0754 198.626C92.0282 198.862 91.9102 199.263 91.7922 199.617ZM101.064 206.934V195.935H103.378V206.792C103.378 209.53 104.888 211.041 107.603 211.041C110.293 211.041 111.78 209.507 111.78 206.792V195.935H114.117V206.934C114.117 210.852 111.615 213.283 107.603 213.283C103.566 213.283 101.064 210.876 101.064 206.934ZM134.826 213H124.417V195.935H134.826V198.059H126.73V203.393H134.024V205.447H126.73V210.852H134.826V213ZM141.176 213.283C138.697 213.283 137.234 211.891 137.234 209.79C137.234 207.666 138.815 206.344 141.53 206.131L145.165 205.848V205.518C145.165 203.582 144.008 202.898 142.45 202.898C140.586 202.898 139.523 203.724 139.523 205.116H137.588C137.588 202.709 139.571 201.128 142.545 201.128C145.401 201.128 147.336 202.638 147.336 205.754V213H145.448L145.212 211.135C144.622 212.457 143.04 213.283 141.176 213.283ZM141.813 211.56C143.914 211.56 145.188 210.191 145.188 208.02V207.406L142.238 207.642C140.279 207.831 139.476 208.586 139.476 209.719C139.476 210.947 140.373 211.56 141.813 211.56ZM153.482 213H151.263V203.323H148.997V201.458H151.263V197.847H153.482V201.458H155.748V203.323H153.482V213ZM156.795 209.648H158.919C158.919 210.828 159.816 211.537 161.279 211.537C162.837 211.537 163.734 210.899 163.734 209.837C163.734 209.058 163.356 208.586 162.153 208.279L160.123 207.807C158.069 207.312 157.101 206.297 157.101 204.597C157.101 202.473 158.895 201.128 161.444 201.128C163.97 201.128 165.622 202.544 165.669 204.739H163.545C163.498 203.582 162.719 202.851 161.374 202.851C159.981 202.851 159.202 203.464 159.202 204.526C159.202 205.305 159.769 205.825 160.902 206.108L162.931 206.603C164.891 207.076 165.858 207.972 165.858 209.696C165.858 211.891 163.97 213.283 161.232 213.283C158.518 213.283 156.795 211.843 156.795 209.648Z" fill="#097B62"/>
<mask id="mask0_232_97" style="mask-type:alpha" maskUnits="userSpaceOnUse" x="48" y="28" width="154" height="154">
<rect x="48.3296" y="28.3096" width="152.7" height="152.7" fill="#123E44"/>
</mask>
<g mask="url(#mask0_232_97)">
<path d="M80.142 161.922V98.2968C76.6426 98.2968 73.6469 97.0509 71.155 94.5589C68.663 92.0669 67.417 89.0712 67.417 85.5719V51.8507C67.417 50.5782 67.8412 49.5178 68.6895 48.6695C69.5378 47.8211 70.5982 47.397 71.8707 47.397C73.1432 47.397 74.2036 47.8211 75.052 48.6695C75.9003 49.5178 76.3245 50.5782 76.3245 51.8507V72.8469H82.0507V51.8507C82.0507 50.5782 82.4749 49.5178 83.3232 48.6695C84.1715 47.8211 85.2319 47.397 86.5044 47.397C87.7769 47.397 88.8374 47.8211 89.6857 48.6695C90.534 49.5178 90.9582 50.5782 90.9582 51.8507V72.8469H96.6844V51.8507C96.6844 50.5782 97.1086 49.5178 97.9569 48.6695C98.8052 47.8211 99.8657 47.397 101.138 47.397C102.411 47.397 103.471 47.8211 104.319 48.6695C105.168 49.5178 105.592 50.5782 105.592 51.8507V85.5719C105.592 89.0712 104.346 92.0669 101.854 94.5589C99.362 97.0509 96.3663 98.2968 92.8669 98.2968V161.922H80.142ZM124.679 161.922V97.6606C120.226 95.5398 116.991 92.226 114.977 87.7192C112.962 83.2125 111.954 78.4671 111.954 73.4832C111.954 66.8025 113.625 60.7847 116.965 55.4296C120.305 50.0745 124.997 47.397 131.042 47.397C137.086 47.397 141.779 50.0745 145.119 55.4296C148.459 60.7847 150.129 66.8025 150.129 73.4832C150.129 78.4671 149.122 83.2125 147.107 87.7192C145.092 92.226 141.858 95.5398 137.404 97.6606V161.922H124.679ZM156.492 161.922V47.397C163.49 47.397 169.482 49.8889 174.466 54.8729C179.45 59.8568 181.942 65.8482 181.942 72.8469V111.022H169.217V161.922H156.492Z" fill="url(#paint0_linear_232_97)"/>
</g>
</g>
<defs>
<filter id="filter0_d_232_97" x="-18.4" y="-10.4" width="287.017" height="280.154" filterUnits="userSpaceOnUse" color-interpolation-filters="sRGB">
<feFlood flood-opacity="0" result="BackgroundImageFix"/>
<feColorMatrix in="SourceAlpha" type="matrix" values="0 0 0 0 0 0 0 0 0 0 0 0 0 0 0 0 0 0 127 0" result="hardAlpha"/>
<feOffset dy="4"/>
<feGaussianBlur stdDeviation="7.2"/>
<feComposite in2="hardAlpha" operator="out"/>
<feColorMatrix type="matrix" values="0 0 0 0 0 0 0 0 0 0 0 0 0 0 0 0 0 0 0.25 0"/>
<feBlend mode="normal" in2="BackgroundImageFix" result="effect1_dropShadow_232_97"/>
<feBlend mode="normal" in="SourceGraphic" in2="effect1_dropShadow_232_97" result="shape"/>
</filter>
<linearGradient id="paint0_linear_232_97" x1="124.679" y1="47.397" x2="124.679" y2="161.922" gradientUnits="userSpaceOnUse">
<stop stop-color="#1DC19D"/>
<stop offset="0.9999" stop-color="#07755D"/>
<stop offset="1" stop-color="#052921"/>
</linearGradient>
<clipPath id="clip0_232_97">
<rect width="251" height="251" fill="white"/>
</clipPath>
</defs>
</svg>
