<svg width="251" height="251" viewBox="0 0 251 251" fill="none" xmlns="http://www.w3.org/2000/svg">
<g clip-path="url(#clip0_241_107)">
<g filter="url(#filter0_d_241_107)">
<rect x="-4" width="258.217" height="251.354" rx="26" fill="url(#paint0_linear_241_107)"/>
</g>
<path d="M36.2225 184.537C36.2225 181.611 38.5828 179.628 42.0997 179.628C45.357 179.628 47.4577 181.445 47.6465 184.396H45.3098C45.1918 182.696 43.988 181.705 42.0761 181.705C39.9282 181.705 38.5356 182.791 38.5356 184.467C38.5356 185.836 39.3145 186.662 40.9196 187.039L43.7284 187.7C46.5135 188.338 47.9298 189.848 47.9298 192.256C47.9298 195.324 45.5458 197.283 41.9109 197.283C38.4412 197.283 36.1281 195.466 35.9864 192.539H38.3468C38.394 194.168 39.763 195.206 41.9109 195.206C44.1768 195.206 45.6166 194.144 45.6166 192.445C45.6166 191.099 44.8849 190.249 43.2563 189.872L40.4475 189.234C37.6623 188.597 36.2225 186.992 36.2225 184.537ZM49.7035 191.241C49.7035 187.629 51.993 185.128 55.3683 185.128C58.2715 185.128 60.3014 186.78 60.7027 189.353H58.484C58.1063 187.889 56.9261 187.11 55.4391 187.11C53.3384 187.11 51.8986 188.715 51.8986 191.217C51.8986 193.696 53.244 195.301 55.3447 195.301C56.9261 195.301 58.1063 194.474 58.5076 193.105H60.7263C60.2778 195.607 58.1299 197.283 55.3447 197.283C51.9458 197.283 49.7035 194.876 49.7035 191.241ZM65.286 196.976H63.0673V179.628H65.286V187.228C66.0177 185.977 67.4103 185.128 69.2041 185.128C72.1546 185.128 73.5708 186.992 73.5708 189.943V197H71.352V190.438C71.352 188.102 70.2427 187.157 68.5904 187.157C66.4425 187.157 65.286 188.715 65.286 190.698V196.976ZM75.8885 191.217C75.8885 187.653 78.4377 185.151 81.9074 185.151C85.3534 185.151 87.9026 187.653 87.9026 191.217C87.9026 194.781 85.3534 197.283 81.9074 197.283C78.4377 197.283 75.8885 194.781 75.8885 191.217ZM78.1308 191.217C78.1308 193.625 79.665 195.301 81.9074 195.301C84.1261 195.301 85.6839 193.625 85.6839 191.217C85.6839 188.81 84.1261 187.134 81.9074 187.134C79.665 187.134 78.1308 188.81 78.1308 191.217ZM89.6033 191.217C89.6033 187.653 92.1525 185.151 95.6222 185.151C99.0683 185.151 101.617 187.653 101.617 191.217C101.617 194.781 99.0683 197.283 95.6222 197.283C92.1525 197.283 89.6033 194.781 89.6033 191.217ZM91.8457 191.217C91.8457 193.625 93.3799 195.301 95.6222 195.301C97.8409 195.301 99.3987 193.625 99.3987 191.217C99.3987 188.81 97.8409 187.134 95.6222 187.134C93.3799 187.134 91.8457 188.81 91.8457 191.217ZM106.339 197H104.121V179.628H106.339V197ZM118.75 179.935V194.852H126.256V197H116.437V179.935H118.75ZM129.477 182.72C128.675 182.72 128.014 182.059 128.014 181.257C128.014 180.43 128.675 179.793 129.477 179.793C130.28 179.793 130.941 180.43 130.941 181.257C130.941 182.059 130.28 182.72 129.477 182.72ZM128.391 197V185.458H130.61V197H128.391ZM133.076 191.241C133.076 187.629 135.365 185.128 138.741 185.128C141.644 185.128 143.674 186.78 144.075 189.353H141.856C141.479 187.889 140.299 187.11 138.812 187.11C136.711 187.11 135.271 188.715 135.271 191.217C135.271 193.696 136.616 195.301 138.717 195.301C140.299 195.301 141.479 194.474 141.88 193.105H144.099C143.65 195.607 141.502 197.283 138.717 197.283C135.318 197.283 133.076 194.876 133.076 191.241ZM151.42 197.283C148.021 197.283 145.684 194.828 145.684 191.241C145.684 187.629 147.974 185.128 151.326 185.128C154.606 185.128 156.754 187.393 156.754 190.816V191.642L147.832 191.666C147.998 194.097 149.272 195.442 151.467 195.442C153.19 195.442 154.323 194.734 154.701 193.412H156.778C156.211 195.891 154.276 197.283 151.42 197.283ZM151.326 186.992C149.39 186.992 148.163 188.149 147.879 190.179H154.536C154.536 188.267 153.285 186.992 151.326 186.992ZM161.451 197H159.233V185.458H161.239L161.475 187.228C162.207 185.906 163.67 185.128 165.299 185.128C168.343 185.128 169.736 186.992 169.736 189.943V197H167.517V190.438C167.517 188.102 166.432 187.157 164.732 187.157C162.655 187.157 161.451 188.644 161.451 190.887V197ZM171.727 193.648H173.851C173.851 194.828 174.748 195.537 176.211 195.537C177.769 195.537 178.666 194.899 178.666 193.837C178.666 193.058 178.288 192.586 177.085 192.279L175.055 191.807C173.001 191.312 172.033 190.297 172.033 188.597C172.033 186.473 173.827 185.128 176.377 185.128C178.902 185.128 180.554 186.544 180.602 188.739H178.477C178.43 187.582 177.651 186.851 176.306 186.851C174.913 186.851 174.134 187.464 174.134 188.526C174.134 189.305 174.701 189.825 175.834 190.108L177.864 190.603C179.823 191.076 180.79 191.972 180.79 193.696C180.79 195.891 178.902 197.283 176.164 197.283C173.45 197.283 171.727 195.843 171.727 193.648ZM184.337 182.72C183.534 182.72 182.873 182.059 182.873 181.257C182.873 180.43 183.534 179.793 184.337 179.793C185.139 179.793 185.8 180.43 185.8 181.257C185.8 182.059 185.139 182.72 184.337 182.72ZM183.251 197V185.458H185.47V197H183.251ZM190.909 197H188.691V185.458H190.697L190.933 187.228C191.665 185.906 193.128 185.128 194.757 185.128C197.802 185.128 199.194 186.992 199.194 189.943V197H196.975V190.438C196.975 188.102 195.89 187.157 194.19 187.157C192.113 187.157 190.909 188.644 190.909 190.887V197ZM201.535 190.934C201.535 187.677 203.636 185.128 206.988 185.128C208.853 185.128 210.292 185.977 211.024 187.417L211.189 185.458H213.172V196.528C213.172 200.163 210.93 202.476 207.389 202.476C204.25 202.476 202.102 200.706 201.677 197.779H203.896C204.179 199.478 205.454 200.47 207.389 200.47C209.561 200.47 210.977 199.053 210.977 196.858V194.545C210.222 195.891 208.711 196.693 206.893 196.693C203.613 196.693 201.535 194.168 201.535 190.934ZM203.754 190.887C203.754 193.058 205.1 194.758 207.271 194.758C209.513 194.758 210.882 193.153 210.882 190.887C210.882 188.668 209.561 187.063 207.295 187.063C205.076 187.063 203.754 188.762 203.754 190.887ZM86.8406 216.537C86.8406 213.611 89.201 211.628 92.7179 211.628C95.9751 211.628 98.0758 213.445 98.2647 216.396H95.9279C95.8099 214.696 94.6061 213.705 92.6943 213.705C90.5464 213.705 89.1538 214.791 89.1538 216.467C89.1538 217.836 89.9327 218.662 91.5377 219.039L94.3465 219.7C97.1317 220.338 98.5479 221.848 98.5479 224.256C98.5479 227.324 96.164 229.283 92.529 229.283C89.0594 229.283 86.7462 227.466 86.6046 224.539H88.9649C89.0121 226.168 90.3811 227.206 92.529 227.206C94.795 227.206 96.2348 226.144 96.2348 224.445C96.2348 223.099 95.5031 222.249 93.8744 221.872L91.0656 221.234C88.2804 220.597 86.8406 218.992 86.8406 216.537ZM106.057 229.283C102.658 229.283 100.322 226.828 100.322 223.241C100.322 219.629 102.611 217.128 105.963 217.128C109.244 217.128 111.392 219.393 111.392 222.816V223.642L102.47 223.666C102.635 226.097 103.909 227.442 106.104 227.442C107.828 227.442 108.96 226.734 109.338 225.412H111.415C110.849 227.891 108.913 229.283 106.057 229.283ZM105.963 218.992C104.027 218.992 102.8 220.149 102.517 222.179H109.173C109.173 220.267 107.922 218.992 105.963 218.992ZM120.479 217.364V219.393H119.487C117.387 219.393 116.089 220.668 116.089 222.887V229H113.87V217.482H115.947L116.089 219.228C116.561 218.024 117.717 217.222 119.299 217.222C119.7 217.222 120.03 217.269 120.479 217.364ZM126.139 229L121.489 217.458H123.85L126.375 223.902C126.776 224.987 127.107 225.955 127.296 226.663C127.485 225.908 127.862 224.917 128.263 223.902L130.836 217.458H133.149L128.334 229H126.139ZM136 214.72C135.198 214.72 134.537 214.059 134.537 213.257C134.537 212.43 135.198 211.793 136 211.793C136.803 211.793 137.464 212.43 137.464 213.257C137.464 214.059 136.803 214.72 136 214.72ZM134.915 229V217.458H137.133V229H134.915ZM139.599 223.241C139.599 219.629 141.889 217.128 145.264 217.128C148.167 217.128 150.197 218.78 150.598 221.353H148.38C148.002 219.889 146.822 219.11 145.335 219.11C143.234 219.11 141.794 220.715 141.794 223.217C141.794 225.696 143.14 227.301 145.24 227.301C146.822 227.301 148.002 226.474 148.403 225.105H150.622C150.173 227.607 148.026 229.283 145.24 229.283C141.841 229.283 139.599 226.876 139.599 223.241ZM157.943 229.283C154.544 229.283 152.208 226.828 152.208 223.241C152.208 219.629 154.497 217.128 157.849 217.128C161.13 217.128 163.278 219.393 163.278 222.816V223.642L154.355 223.666C154.521 226.097 155.795 227.442 157.99 227.442C159.713 227.442 160.846 226.734 161.224 225.412H163.301C162.735 227.891 160.799 229.283 157.943 229.283ZM157.849 218.992C155.913 218.992 154.686 220.149 154.403 222.179H161.059C161.059 220.267 159.808 218.992 157.849 218.992Z" fill="white"/>
<mask id="mask0_241_107" style="mask-type:alpha" maskUnits="userSpaceOnUse" x="57" y="21" width="137" height="137">
<rect x="57" y="21" width="136.084" height="136.084" fill="#123E44"/>
</mask>
<g mask="url(#mask0_241_107)">
<path d="M90.1705 89.0422L88.4695 80.5369C87.3354 80.0644 86.2723 79.5682 85.28 79.0485C84.2877 78.5287 83.2718 77.8908 82.2323 77.1348L74.0105 79.6864L68.3403 70.0471L74.861 64.3769C74.672 63.1483 74.5775 61.9198 74.5775 60.6913C74.5775 59.4627 74.672 58.2342 74.861 57.0056L68.3403 51.3355L74.0105 41.6961L82.2323 44.2477C83.2718 43.4917 84.2877 42.8538 85.28 42.334C86.2723 41.8143 87.3354 41.3181 88.4695 40.8456L90.1705 32.3403H101.511L103.212 40.8456C104.346 41.3181 105.409 41.8143 106.401 42.334C107.394 42.8538 108.41 43.4917 109.449 44.2477L117.671 41.6961L123.341 51.3355L116.82 57.0056C117.009 58.2342 117.104 59.4627 117.104 60.6913C117.104 61.9198 117.009 63.1483 116.82 64.3769L123.341 70.0471L117.671 79.6864L109.449 77.1348C108.41 77.8908 107.394 78.5287 106.401 79.0485C105.409 79.5682 104.346 80.0644 103.212 80.5369L101.511 89.0422H90.1705ZM95.8407 72.0316C98.9593 72.0316 101.629 70.9212 103.85 68.7004C106.071 66.4796 107.181 63.8099 107.181 60.6913C107.181 57.5727 106.071 54.9029 103.85 52.6821C101.629 50.4613 98.9593 49.3509 95.8407 49.3509C92.7221 49.3509 90.0524 50.4613 87.8316 52.6821C85.6108 54.9029 84.5004 57.5727 84.5004 60.6913C84.5004 63.8099 85.6108 66.4796 87.8316 68.7004C90.0524 70.9212 92.7221 72.0316 95.8407 72.0316ZM140.919 151.414L138.367 139.507C136.761 138.94 135.272 138.255 133.902 137.451C132.532 136.648 131.185 135.727 129.862 134.687L118.521 138.373L110.583 124.764L119.655 116.826C119.466 115.125 119.372 113.424 119.372 111.723C119.372 110.022 119.466 108.321 119.655 106.62L110.583 98.6815L118.521 85.0731L129.862 88.7587C131.185 87.7191 132.532 86.7977 133.902 85.9945C135.272 85.1912 136.761 84.506 138.367 83.939L140.919 72.0316H156.795L159.347 83.939C160.953 84.506 162.442 85.1912 163.812 85.9945C165.182 86.7977 166.529 87.7191 167.852 88.7587L179.192 85.0731L187.131 98.6815L178.058 106.62C178.247 108.321 178.342 110.022 178.342 111.723C178.342 113.424 178.247 115.125 178.058 116.826L187.131 124.764L179.192 138.373L167.852 134.687C166.529 135.727 165.182 136.648 163.812 137.451C162.442 138.255 160.953 138.94 159.347 139.507L156.795 151.414H140.919ZM148.857 128.733C153.582 128.733 157.598 127.08 160.906 123.772C164.214 120.464 165.868 116.448 165.868 111.723C165.868 106.998 164.214 102.981 160.906 99.6738C157.598 96.3662 153.582 94.7124 148.857 94.7124C144.132 94.7124 140.115 96.3662 136.808 99.6738C133.5 102.981 131.846 106.998 131.846 111.723C131.846 116.448 133.5 120.464 136.808 123.772C140.115 127.08 144.132 128.733 148.857 128.733Z" fill="white"/>
</g>
</g>
<defs>
<filter id="filter0_d_241_107" x="-18.4" y="-10.4" width="287.017" height="280.154" filterUnits="userSpaceOnUse" color-interpolation-filters="sRGB">
<feFlood flood-opacity="0" result="BackgroundImageFix"/>
<feColorMatrix in="SourceAlpha" type="matrix" values="0 0 0 0 0 0 0 0 0 0 0 0 0 0 0 0 0 0 127 0" result="hardAlpha"/>
<feOffset dy="4"/>
<feGaussianBlur stdDeviation="7.2"/>
<feComposite in2="hardAlpha" operator="out"/>
<feColorMatrix type="matrix" values="0 0 0 0 0 0 0 0 0 0 0 0 0 0 0 0 0 0 0.25 0"/>
<feBlend mode="normal" in2="BackgroundImageFix" result="effect1_dropShadow_241_107"/>
<feBlend mode="normal" in="SourceGraphic" in2="effect1_dropShadow_241_107" result="shape"/>
</filter>
<linearGradient id="paint0_linear_241_107" x1="125.108" y1="0" x2="125.108" y2="251.354" gradientUnits="userSpaceOnUse">
<stop stop-color="#40B99B"/>
<stop offset="1" stop-color="#286C5F"/>
</linearGradient>
<clipPath id="clip0_241_107">
<rect width="251" height="251" fill="white"/>
</clipPath>
</defs>
</svg>
