<svg width="251" height="251" viewBox="0 0 251 251" fill="none" xmlns="http://www.w3.org/2000/svg">
<g clip-path="url(#clip0_241_114)">
<g filter="url(#filter0_d_241_114)">
<rect x="-4" width="258.217" height="251.354" rx="26" fill="url(#paint0_linear_241_114)"/>
</g>
<path d="M86.1412 188.456C86.1412 193.648 82.7423 197.283 77.9036 197.283C73.0885 197.283 69.7369 193.648 69.7369 188.456C69.7369 183.286 73.1121 179.628 77.9272 179.628C82.7659 179.628 86.1412 183.263 86.1412 188.456ZM83.7101 188.456C83.7101 184.49 81.3969 181.87 77.9272 181.87C74.4575 181.87 72.168 184.49 72.168 188.456C72.168 192.421 74.4575 195.065 77.9272 195.065C81.3969 195.065 83.7101 192.397 83.7101 188.456ZM87.4947 185.458H89.1942V183.617C89.1942 180.784 90.7284 179.628 92.8527 179.628C93.2775 179.628 93.7732 179.652 94.1981 179.722V181.634H93.2067C91.7669 181.634 91.4129 182.366 91.4129 183.617V185.458H96.5348V183.617C96.5348 180.784 98.069 179.628 100.075 179.628C100.5 179.628 100.996 179.652 101.444 179.722V181.634H100.453C99.1076 181.634 98.7299 182.366 98.7299 183.617V185.458H106.071V197H103.875V187.323H98.7299V197H96.5348V187.323H91.4129V197H89.1942V187.323H87.4947V185.458ZM104.961 182.46C104.159 182.46 103.569 181.847 103.569 181.044C103.569 180.265 104.159 179.628 104.961 179.628C105.764 179.628 106.377 180.265 106.377 181.044C106.377 181.847 105.764 182.46 104.961 182.46ZM108.481 191.241C108.481 187.629 110.771 185.128 114.146 185.128C117.049 185.128 119.079 186.78 119.481 189.353H117.262C116.884 187.889 115.704 187.11 114.217 187.11C112.116 187.11 110.677 188.715 110.677 191.217C110.677 193.696 112.022 195.301 114.123 195.301C115.704 195.301 116.884 194.474 117.285 193.105H119.504C119.056 195.607 116.908 197.283 114.123 197.283C110.724 197.283 108.481 194.876 108.481 191.241ZM126.825 197.283C123.427 197.283 121.09 194.828 121.09 191.241C121.09 187.629 123.379 185.128 126.731 185.128C130.012 185.128 132.16 187.393 132.16 190.816V191.642L123.238 191.666C123.403 194.097 124.678 195.442 126.873 195.442C128.596 195.442 129.729 194.734 130.106 193.412H132.183C131.617 195.891 129.681 197.283 126.825 197.283ZM126.731 186.992C124.796 186.992 123.568 188.149 123.285 190.179H129.941C129.941 188.267 128.69 186.992 126.731 186.992ZM145.529 188.172H143.83V186.638L148.669 181.988H140.998V179.935H151.596V181.799L146.922 186.26C149.825 186.615 152.02 188.574 152.02 191.642C152.02 195.088 149.424 197.283 145.954 197.283C142.603 197.283 140.195 195.23 140.195 191.689H142.485C142.485 193.908 143.854 195.206 146.002 195.206C148.22 195.206 149.66 193.79 149.66 191.595C149.66 189.541 148.244 188.172 145.529 188.172ZM156.23 185.34L160.219 179.935H162.91L158.638 185.6C159.228 185.364 159.842 185.246 160.432 185.246C163.972 185.246 166.356 187.795 166.356 191.17C166.356 194.734 163.665 197.283 160.148 197.283C156.608 197.283 153.87 194.616 153.87 191.17C153.87 189.14 154.484 187.724 156.23 185.34ZM156.23 191.194C156.23 193.53 157.835 195.206 160.148 195.206C162.414 195.206 164.019 193.53 164.019 191.194C164.019 188.857 162.414 187.205 160.148 187.205C157.835 187.205 156.23 188.857 156.23 191.194ZM174.178 197.283C170.684 197.283 168.418 195.065 168.418 191.666H170.708C170.708 193.861 172.053 195.206 174.225 195.206C176.538 195.206 178.025 193.672 178.025 191.359C178.025 189.164 176.632 187.535 174.249 187.535C172.809 187.535 171.487 188.22 170.708 189.187L168.749 188.692L170.826 179.935H179.37V182.059H172.502L171.369 186.591C172.266 185.906 173.399 185.552 174.673 185.552C178.143 185.552 180.385 187.984 180.385 191.264C180.385 194.805 177.86 197.283 174.178 197.283ZM83.879 229L78.8042 211.935H81.2118L84.3274 222.367C84.5635 223.264 84.7995 224.161 85.0355 225.459C85.3188 224.09 85.5784 223.264 85.838 222.367L89.0717 211.935H91.5737L94.7837 222.367C95.067 223.288 95.303 224.185 95.5626 225.459C95.8459 224.02 96.0819 223.146 96.3179 222.391L99.4572 211.935H101.818L96.672 229H94.4533L90.3227 215.499L86.1449 229H83.879ZM107.256 229.283C103.857 229.283 101.52 226.828 101.52 223.241C101.52 219.629 103.81 217.128 107.161 217.128C110.442 217.128 112.59 219.393 112.59 222.816V223.642L103.668 223.666C103.833 226.097 105.108 227.442 107.303 227.442C109.026 227.442 110.159 226.734 110.537 225.412H112.614C112.047 227.891 110.112 229.283 107.256 229.283ZM107.161 218.992C105.226 218.992 103.999 220.149 103.715 222.179H110.372C110.372 220.267 109.121 218.992 107.161 218.992ZM117.075 229H115.068V211.628H117.287V219.441C118.042 217.93 119.6 217.128 121.489 217.128C124.793 217.128 126.776 219.724 126.776 223.288C126.776 226.781 124.699 229.283 121.347 229.283C119.529 229.283 117.995 228.481 117.24 226.899L117.075 229ZM117.311 223.194C117.311 225.601 118.68 227.277 120.946 227.277C123.212 227.277 124.557 225.578 124.557 223.194C124.557 220.833 123.212 219.134 120.946 219.134C118.68 219.134 117.311 220.833 117.311 223.194ZM131.44 229H129.221V217.458H131.204L131.416 218.969C132.006 217.883 133.234 217.128 134.862 217.128C136.656 217.128 137.931 218.024 138.521 219.464C139.064 218.024 140.456 217.128 142.25 217.128C144.894 217.128 146.499 218.78 146.499 221.447V229H144.327V221.99C144.327 220.172 143.312 219.134 141.755 219.134C140.079 219.134 138.969 220.314 138.969 222.155V229H136.774V221.966C136.774 220.149 135.783 219.157 134.225 219.157C132.549 219.157 131.44 220.314 131.44 222.155V229ZM152.95 229.283C150.471 229.283 149.008 227.891 149.008 225.79C149.008 223.666 150.589 222.344 153.304 222.131L156.939 221.848V221.518C156.939 219.582 155.782 218.898 154.224 218.898C152.36 218.898 151.298 219.724 151.298 221.116H149.362C149.362 218.709 151.345 217.128 154.319 217.128C157.175 217.128 159.11 218.638 159.11 221.754V229H157.222L156.986 227.135C156.396 228.457 154.814 229.283 152.95 229.283ZM153.587 227.56C155.688 227.56 156.962 226.191 156.962 224.02V223.406L154.012 223.642C152.053 223.831 151.25 224.586 151.25 225.719C151.25 226.947 152.147 227.56 153.587 227.56ZM163.269 214.72C162.466 214.72 161.805 214.059 161.805 213.257C161.805 212.43 162.466 211.793 163.269 211.793C164.071 211.793 164.732 212.43 164.732 213.257C164.732 214.059 164.071 214.72 163.269 214.72ZM162.183 229V217.458H164.402V229H162.183ZM169.889 229H167.67V211.628H169.889V229Z" fill="white"/>
<g clip-path="url(#clip1_241_114)">
<path d="M191.553 74.6499H192V125.5L190.66 128.2L187.533 130.9H141.08V94.8999L142.867 95.7999L145.1 97.5999L148.227 98.9499L151.353 99.3999L155.82 98.4999L161.18 95.3499L168.327 90.3999L186.193 78.2499L191.553 74.6499Z" fill="white"/>
<path fill-rule="evenodd" clip-rule="evenodd" d="M137.06 31H133.933L131.253 31.45L61.1267 43.6L58 44.5V150.7L58.8933 151.15L131.7 165.55L137.06 166V31ZM99.9867 73.3H94.6267L89.7134 75.55L85.6934 79.15L82.5667 83.65L80.7801 88.15L79.8867 93.1V103L81.6734 108.85L85.2467 115.15L89.7134 119.2L95.0734 121.45H99.5401L102.667 120.55L106.687 118.3L110.26 114.7L113.387 109.3L115.62 101.65V93.55L114.28 87.7L112.047 82.75L109.367 79.15L104.9 75.1L99.9867 73.3Z" fill="white"/>
<path d="M141.08 58H187.533L190.213 59.35L191.553 61.15L192 64.3L184.853 68.8L165.647 81.85L151.353 91.3L146.44 88.6L141.08 85V58Z" fill="white"/>
<path d="M95.5201 83.2H99.5401L103.113 86.35L105.347 90.85L105.793 93.1V101.65L104.007 106.6L101.327 110.2L98.6467 111.55H95.9667L93.2867 109.75L91.0534 107.05L89.2667 103L88.8201 100.3V93.1L90.6067 88.15L93.2867 84.55L95.5201 83.2Z" fill="white"/>
</g>
</g>
<defs>
<filter id="filter0_d_241_114" x="-18.4" y="-10.4" width="287.017" height="280.154" filterUnits="userSpaceOnUse" color-interpolation-filters="sRGB">
<feFlood flood-opacity="0" result="BackgroundImageFix"/>
<feColorMatrix in="SourceAlpha" type="matrix" values="0 0 0 0 0 0 0 0 0 0 0 0 0 0 0 0 0 0 127 0" result="hardAlpha"/>
<feOffset dy="4"/>
<feGaussianBlur stdDeviation="7.2"/>
<feComposite in2="hardAlpha" operator="out"/>
<feColorMatrix type="matrix" values="0 0 0 0 0 0 0 0 0 0 0 0 0 0 0 0 0 0 0.25 0"/>
<feBlend mode="normal" in2="BackgroundImageFix" result="effect1_dropShadow_241_114"/>
<feBlend mode="normal" in="SourceGraphic" in2="effect1_dropShadow_241_114" result="shape"/>
</filter>
<linearGradient id="paint0_linear_241_114" x1="125.108" y1="0" x2="125.108" y2="251.354" gradientUnits="userSpaceOnUse">
<stop stop-color="#40B99B"/>
<stop offset="1" stop-color="#286C5F"/>
</linearGradient>
<clipPath id="clip0_241_114">
<rect width="251" height="251" fill="white"/>
</clipPath>
<clipPath id="clip1_241_114">
<rect width="134" height="135" fill="white" transform="translate(58 31)"/>
</clipPath>
</defs>
</svg>
