<svg width="251" height="251" viewBox="0 0 251 251" fill="none" xmlns="http://www.w3.org/2000/svg">
<g clip-path="url(#clip0_232_96)">
<g filter="url(#filter0_d_232_96)">
<rect x="-4" width="258.217" height="251.354" rx="26" fill="white"/>
</g>
<path d="M35.6935 179.935V194.852H43.1994V197H33.3804V179.935H35.6935ZM50.0844 197.283C46.6855 197.283 44.3488 194.828 44.3488 191.241C44.3488 187.629 46.6383 185.128 49.99 185.128C53.2708 185.128 55.4187 187.393 55.4187 190.816V191.642L46.4967 191.666C46.6619 194.097 47.9365 195.442 50.1316 195.442C51.8546 195.442 52.9876 194.734 53.3653 193.412H55.4424C54.8759 195.891 52.9404 197.283 50.0844 197.283ZM49.99 186.992C48.0545 186.992 46.8271 188.149 46.5439 190.179H53.2C53.2 188.267 51.9491 186.992 49.99 186.992ZM61.1569 197.283C58.6786 197.283 57.2152 195.891 57.2152 193.79C57.2152 191.666 58.7966 190.344 61.511 190.131L65.1459 189.848V189.518C65.1459 187.582 63.9894 186.898 62.4315 186.898C60.5669 186.898 59.5047 187.724 59.5047 189.116H57.5692C57.5692 186.709 59.5519 185.128 62.5259 185.128C65.3819 185.128 67.3174 186.638 67.3174 189.754V197H65.4292L65.1931 195.135C64.603 196.457 63.0216 197.283 61.1569 197.283ZM61.7942 195.56C63.8949 195.56 65.1695 194.191 65.1695 192.02V191.406L62.2191 191.642C60.26 191.831 59.4575 192.586 59.4575 193.719C59.4575 194.947 60.3544 195.56 61.7942 195.56ZM76.999 185.364V187.393H76.0077C73.907 187.393 72.6088 188.668 72.6088 190.887V197H70.3901V185.482H72.4672L72.6088 187.228C73.0809 186.024 74.2375 185.222 75.8189 185.222C76.2201 185.222 76.5506 185.269 76.999 185.364ZM81.2987 197H79.08V185.458H81.0863L81.3223 187.228C82.054 185.906 83.5175 185.128 85.1461 185.128C88.1909 185.128 89.5835 186.992 89.5835 189.943V197H87.3648V190.438C87.3648 188.102 86.279 187.157 84.5796 187.157C82.5025 187.157 81.2987 188.644 81.2987 190.887V197ZM93.7423 182.72C92.9398 182.72 92.2789 182.059 92.2789 181.257C92.2789 180.43 92.9398 179.793 93.7423 179.793C94.5448 179.793 95.2057 180.43 95.2057 181.257C95.2057 182.059 94.5448 182.72 93.7423 182.72ZM92.6566 197V185.458H94.8753V197H92.6566ZM100.315 197H98.0964V185.458H100.103L100.339 187.228C101.07 185.906 102.534 185.128 104.162 185.128C107.207 185.128 108.6 186.992 108.6 189.943V197H106.381V190.438C106.381 188.102 105.295 187.157 103.596 187.157C101.519 187.157 100.315 188.644 100.315 190.887V197ZM110.941 190.934C110.941 187.677 113.042 185.128 116.394 185.128C118.258 185.128 119.698 185.977 120.43 187.417L120.595 185.458H122.578V196.528C122.578 200.163 120.335 202.476 116.795 202.476C113.656 202.476 111.508 200.706 111.083 197.779H113.302C113.585 199.478 114.859 200.47 116.795 200.47C118.966 200.47 120.383 199.053 120.383 196.858V194.545C119.627 195.891 118.117 196.693 116.299 196.693C113.018 196.693 110.941 194.168 110.941 190.934ZM113.16 190.887C113.16 193.058 114.505 194.758 116.677 194.758C118.919 194.758 120.288 193.153 120.288 190.887C120.288 188.668 118.966 187.063 116.7 187.063C114.482 187.063 113.16 188.762 113.16 190.887ZM133.319 197H130.912L137.143 179.935H139.716L145.971 197H143.54L142.005 192.751H134.83L133.319 197ZM138.135 183.617L135.538 190.745H141.321L138.701 183.617C138.583 183.286 138.465 182.885 138.418 182.626C138.371 182.862 138.253 183.263 138.135 183.617ZM146.668 191.241C146.668 187.629 148.958 185.128 152.333 185.128C155.236 185.128 157.266 186.78 157.668 189.353H155.449C155.071 187.889 153.891 187.11 152.404 187.11C150.303 187.11 148.864 188.715 148.864 191.217C148.864 193.696 150.209 195.301 152.31 195.301C153.891 195.301 155.071 194.474 155.473 193.105H157.691C157.243 195.607 155.095 197.283 152.31 197.283C148.911 197.283 146.668 194.876 146.668 191.241ZM163.289 197H161.071V187.323H158.805V185.458H161.071V181.847H163.289V185.458H165.555V187.323H163.289V197ZM168.632 182.72C167.83 182.72 167.169 182.059 167.169 181.257C167.169 180.43 167.83 179.793 168.632 179.793C169.435 179.793 170.096 180.43 170.096 181.257C170.096 182.059 169.435 182.72 168.632 182.72ZM167.547 197V185.458H169.765V197H167.547ZM176.22 197L171.57 185.458H173.931L176.456 191.902C176.857 192.987 177.188 193.955 177.377 194.663C177.565 193.908 177.943 192.917 178.344 191.902L180.917 185.458H183.23L178.415 197H176.22ZM186.081 182.72C185.279 182.72 184.618 182.059 184.618 181.257C184.618 180.43 185.279 179.793 186.081 179.793C186.884 179.793 187.545 180.43 187.545 181.257C187.545 182.059 186.884 182.72 186.081 182.72ZM184.996 197V185.458H187.214V197H184.996ZM193.693 197H191.474V187.323H189.208V185.458H191.474V181.847H193.693V185.458H195.959V187.323H193.693V197ZM202.815 197.283C199.416 197.283 197.079 194.828 197.079 191.241C197.079 187.629 199.369 185.128 202.72 185.128C206.001 185.128 208.149 187.393 208.149 190.816V191.642L199.227 191.666C199.392 194.097 200.667 195.442 202.862 195.442C204.585 195.442 205.718 194.734 206.096 193.412H208.173C207.606 195.891 205.671 197.283 202.815 197.283ZM202.72 186.992C200.785 186.992 199.558 188.149 199.274 190.179H205.93C205.93 188.267 204.679 186.992 202.72 186.992ZM209.683 193.648H211.807C211.807 194.828 212.704 195.537 214.168 195.537C215.726 195.537 216.623 194.899 216.623 193.837C216.623 193.058 216.245 192.586 215.041 192.279L213.011 191.807C210.958 191.312 209.99 190.297 209.99 188.597C209.99 186.473 211.784 185.128 214.333 185.128C216.859 185.128 218.511 186.544 218.558 188.739H216.434C216.387 187.582 215.608 186.851 214.262 186.851C212.87 186.851 212.091 187.464 212.091 188.526C212.091 189.305 212.657 189.825 213.79 190.108L215.82 190.603C217.779 191.076 218.747 191.972 218.747 193.696C218.747 195.891 216.859 197.283 214.121 197.283C211.406 197.283 209.683 195.843 209.683 193.648ZM25.4247 229H23.1115V211.935H29.5553C33.2138 211.935 35.3853 213.87 35.3853 217.057C35.3853 219.417 34.2051 221.116 32.0808 221.801L35.5505 229H32.9778L29.7913 222.249H25.4247V229ZM25.4247 214.012V220.196H29.5789C31.7268 220.196 32.9541 219.039 32.9541 217.08C32.9541 215.098 31.6796 214.012 29.5553 214.012H25.4247ZM42.328 229.283C38.9291 229.283 36.5924 226.828 36.5924 223.241C36.5924 219.629 38.8819 217.128 42.2336 217.128C45.5145 217.128 47.6624 219.393 47.6624 222.816V223.642L38.7403 223.666C38.9055 226.097 40.1801 227.442 42.3752 227.442C44.0983 227.442 45.2312 226.734 45.6089 225.412H47.686C47.1195 227.891 45.184 229.283 42.328 229.283ZM42.2336 218.992C40.2981 218.992 39.0707 220.149 38.7875 222.179H45.4436C45.4436 220.267 44.1927 218.992 42.2336 218.992ZM49.4088 222.934C49.4088 219.677 51.5095 217.128 54.8612 217.128C56.7259 217.128 58.1657 217.977 58.8974 219.417L59.0626 217.458H61.0453V228.528C61.0453 232.163 58.803 234.476 55.2625 234.476C52.1232 234.476 49.9753 232.706 49.5504 229.779H51.7692C52.0524 231.478 53.327 232.47 55.2625 232.47C57.434 232.47 58.8502 231.053 58.8502 228.858V226.545C58.0949 227.891 56.5843 228.693 54.7668 228.693C51.4859 228.693 49.4088 226.168 49.4088 222.934ZM51.6275 222.887C51.6275 225.058 52.9729 226.758 55.1444 226.758C57.3868 226.758 58.7558 225.153 58.7558 222.887C58.7558 220.668 57.434 219.063 55.168 219.063C52.9493 219.063 51.6275 220.762 51.6275 222.887ZM65.333 214.72C64.5305 214.72 63.8696 214.059 63.8696 213.257C63.8696 212.43 64.5305 211.793 65.333 211.793C66.1355 211.793 66.7964 212.43 66.7964 213.257C66.7964 214.059 66.1355 214.72 65.333 214.72ZM64.2472 229V217.458H66.4659V229H64.2472ZM68.7429 225.648H70.8672C70.8672 226.828 71.7642 227.537 73.2276 227.537C74.7854 227.537 75.6823 226.899 75.6823 225.837C75.6823 225.058 75.3047 224.586 74.1009 224.279L72.071 223.807C70.0175 223.312 69.0498 222.297 69.0498 220.597C69.0498 218.473 70.8436 217.128 73.3928 217.128C75.9184 217.128 77.5706 218.544 77.6178 220.739H75.4935C75.4463 219.582 74.6674 218.851 73.322 218.851C71.9294 218.851 71.1505 219.464 71.1505 220.526C71.1505 221.305 71.717 221.825 72.8499 222.108L74.8798 222.603C76.8389 223.076 77.8066 223.972 77.8066 225.696C77.8066 227.891 75.9184 229.283 73.1804 229.283C70.466 229.283 68.7429 227.843 68.7429 225.648ZM83.5244 229H81.3056V219.323H79.0397V217.458H81.3056V213.847H83.5244V217.458H85.7903V219.323H83.5244V229ZM94.3904 217.364V219.393H93.3991C91.2984 219.393 90.0002 220.668 90.0002 222.887V229H87.7815V217.482H89.8585L90.0002 219.228C90.4722 218.024 91.6288 217.222 93.2102 217.222C93.6115 217.222 93.9419 217.269 94.3904 217.364ZM99.3856 229.283C96.9073 229.283 95.4439 227.891 95.4439 225.79C95.4439 223.666 97.0253 222.344 99.7397 222.131L103.375 221.848V221.518C103.375 219.582 102.218 218.898 100.66 218.898C98.7956 218.898 97.7334 219.724 97.7334 221.116H95.7979C95.7979 218.709 97.7806 217.128 100.755 217.128C103.611 217.128 105.546 218.638 105.546 221.754V229H103.658L103.422 227.135C102.832 228.457 101.25 229.283 99.3856 229.283ZM100.023 227.56C102.124 227.56 103.398 226.191 103.398 224.02V223.406L100.448 223.642C98.4887 223.831 97.6862 224.586 97.6862 225.719C97.6862 226.947 98.5831 227.56 100.023 227.56ZM111.692 229H109.473V219.323H107.207V217.458H109.473V213.847H111.692V217.458H113.958V219.323H111.692V229ZM117.035 214.72C116.232 214.72 115.571 214.059 115.571 213.257C115.571 212.43 116.232 211.793 117.035 211.793C117.837 211.793 118.498 212.43 118.498 213.257C118.498 214.059 117.837 214.72 117.035 214.72ZM115.949 229V217.458H118.167V229H115.949ZM120.633 223.217C120.633 219.653 123.182 217.151 126.652 217.151C130.098 217.151 132.647 219.653 132.647 223.217C132.647 226.781 130.098 229.283 126.652 229.283C123.182 229.283 120.633 226.781 120.633 223.217ZM122.876 223.217C122.876 225.625 124.41 227.301 126.652 227.301C128.871 227.301 130.429 225.625 130.429 223.217C130.429 220.81 128.871 219.134 126.652 219.134C124.41 219.134 122.876 220.81 122.876 223.217ZM137.322 229H135.103V217.458H137.11L137.346 219.228C138.077 217.906 139.541 217.128 141.17 217.128C144.214 217.128 145.607 218.992 145.607 221.943V229H143.388V222.438C143.388 220.102 142.302 219.157 140.603 219.157C138.526 219.157 137.322 220.644 137.322 222.887V229ZM154.52 216.537C154.52 213.611 156.881 211.628 160.398 211.628C163.655 211.628 165.756 213.445 165.944 216.396H163.608C163.49 214.696 162.286 213.705 160.374 213.705C158.226 213.705 156.833 214.791 156.833 216.467C156.833 217.836 157.612 218.662 159.217 219.039L162.026 219.7C164.811 220.338 166.228 221.848 166.228 224.256C166.228 227.324 163.844 229.283 160.209 229.283C156.739 229.283 154.426 227.466 154.284 224.539H156.645C156.692 226.168 158.061 227.206 160.209 227.206C162.475 227.206 163.914 226.144 163.914 224.445C163.914 223.099 163.183 222.249 161.554 221.872L158.745 221.234C155.96 220.597 154.52 218.992 154.52 216.537ZM167.647 234.169V232.352H169.134C170.196 232.352 171.046 232.186 171.589 230.723L171.99 229.614L167.34 217.458H169.677L173.029 226.758L176.451 217.458H178.741L173.289 231.596C172.51 233.579 171.353 234.405 169.583 234.405C168.851 234.405 168.237 234.311 167.647 234.169ZM179.407 225.648H181.531C181.531 226.828 182.428 227.537 183.891 227.537C185.449 227.537 186.346 226.899 186.346 225.837C186.346 225.058 185.969 224.586 184.765 224.279L182.735 223.807C180.681 223.312 179.714 222.297 179.714 220.597C179.714 218.473 181.507 217.128 184.057 217.128C186.582 217.128 188.234 218.544 188.282 220.739H186.157C186.11 219.582 185.331 218.851 183.986 218.851C182.593 218.851 181.814 219.464 181.814 220.526C181.814 221.305 182.381 221.825 183.514 222.108L185.544 222.603C187.503 223.076 188.47 223.972 188.47 225.696C188.47 227.891 186.582 229.283 183.844 229.283C181.13 229.283 179.407 227.843 179.407 225.648ZM194.188 229H191.969V219.323H189.704V217.458H191.969V213.847H194.188V217.458H196.454V219.323H194.188V229ZM203.31 229.283C199.911 229.283 197.575 226.828 197.575 223.241C197.575 219.629 199.864 217.128 203.216 217.128C206.497 217.128 208.645 219.393 208.645 222.816V223.642L199.723 223.666C199.888 226.097 201.162 227.442 203.358 227.442C205.081 227.442 206.214 226.734 206.591 225.412H208.668C208.102 227.891 206.166 229.283 203.31 229.283ZM203.216 218.992C201.28 218.992 200.053 220.149 199.77 222.179H206.426C206.426 220.267 205.175 218.992 203.216 218.992ZM213.342 229H211.123V217.458H213.106L213.318 218.969C213.908 217.883 215.135 217.128 216.764 217.128C218.558 217.128 219.833 218.024 220.423 219.464C220.965 218.024 222.358 217.128 224.152 217.128C226.796 217.128 228.401 218.78 228.401 221.447V229H226.229V221.99C226.229 220.172 225.214 219.134 223.656 219.134C221.98 219.134 220.871 220.314 220.871 222.155V229H218.676V221.966C218.676 220.149 217.685 219.157 216.127 219.157C214.451 219.157 213.342 220.314 213.342 222.155V229Z" fill="#097B62"/>
<mask id="mask0_232_96" style="mask-type:alpha" maskUnits="userSpaceOnUse" x="53" y="28" width="137" height="137">
<rect x="53" y="28" width="136.337" height="136.337" fill="#D9D9D9"/>
</mask>
<g mask="url(#mask0_232_96)">
<path d="M149.572 152.976L147.868 144.455C146.732 143.981 145.666 143.484 144.672 142.963C143.678 142.443 142.66 141.804 141.619 141.046L133.382 143.602L127.701 133.945L134.234 128.265C134.045 127.128 133.95 125.898 133.95 124.572C133.95 123.247 134.045 122.016 134.234 120.88L127.701 115.199L133.382 105.542L141.619 108.098C142.66 107.341 143.678 106.702 144.672 106.181C145.666 105.66 146.732 105.163 147.868 104.69L149.572 96.1685H160.933L162.638 104.69C163.774 105.163 164.839 105.66 165.833 106.181C166.827 106.702 167.845 107.341 168.886 108.098L177.123 105.542L182.804 115.199L176.271 120.88C176.461 122.016 176.555 123.247 176.555 124.572C176.555 125.898 176.461 127.128 176.271 128.265L182.804 133.945L177.123 143.602L168.886 141.046C167.845 141.804 166.827 142.443 165.833 142.963C164.839 143.484 163.774 143.981 162.638 144.455L160.933 152.976H149.572ZM155.253 135.933C158.377 135.933 161.052 134.821 163.277 132.596C165.502 130.371 166.614 127.696 166.614 124.572C166.614 121.448 165.502 118.773 163.277 116.548C161.052 114.323 158.377 113.211 155.253 113.211C152.128 113.211 149.454 114.323 147.229 116.548C145.004 118.773 143.891 121.448 143.891 124.572C143.891 127.696 145.004 130.371 147.229 132.596C149.454 134.821 152.128 135.933 155.253 135.933ZM75.7227 141.614C72.5983 141.614 69.9237 140.502 67.6987 138.277C65.4738 136.052 64.3613 133.377 64.3613 130.253V62.0843C64.3613 58.9599 65.4738 56.2853 67.6987 54.0603C69.9237 51.8354 72.5983 50.7229 75.7227 50.7229H109.807L121.168 62.0843H166.614C169.738 62.0843 172.413 63.1968 174.638 65.4217C176.863 67.6467 177.975 70.3213 177.975 73.4457V92.05C174.662 89.6831 171.064 87.8842 167.182 86.6534C163.3 85.4225 159.276 84.8071 155.111 84.8071C143.939 84.8071 134.542 88.7126 126.92 96.5236C119.298 104.335 115.488 113.637 115.488 124.43C115.488 127.46 115.819 130.395 116.482 133.235C117.145 136.075 118.139 138.868 119.464 141.614H75.7227Z" fill="url(#paint0_linear_232_96)"/>
</g>
</g>
<defs>
<filter id="filter0_d_232_96" x="-18.4" y="-10.4" width="287.017" height="280.154" filterUnits="userSpaceOnUse" color-interpolation-filters="sRGB">
<feFlood flood-opacity="0" result="BackgroundImageFix"/>
<feColorMatrix in="SourceAlpha" type="matrix" values="0 0 0 0 0 0 0 0 0 0 0 0 0 0 0 0 0 0 127 0" result="hardAlpha"/>
<feOffset dy="4"/>
<feGaussianBlur stdDeviation="7.2"/>
<feComposite in2="hardAlpha" operator="out"/>
<feColorMatrix type="matrix" values="0 0 0 0 0 0 0 0 0 0 0 0 0 0 0 0 0 0 0.25 0"/>
<feBlend mode="normal" in2="BackgroundImageFix" result="effect1_dropShadow_232_96"/>
<feBlend mode="normal" in="SourceGraphic" in2="effect1_dropShadow_232_96" result="shape"/>
</filter>
<linearGradient id="paint0_linear_232_96" x1="123.583" y1="50.7229" x2="123.583" y2="152.976" gradientUnits="userSpaceOnUse">
<stop stop-color="#1DC19D"/>
<stop offset="1" stop-color="#07755D"/>
</linearGradient>
<clipPath id="clip0_232_96">
<rect width="251" height="251" fill="white"/>
</clipPath>
</defs>
</svg>
