<svg width="147" height="167" viewBox="0 0 147 167" fill="none" xmlns="http://www.w3.org/2000/svg">
<path d="M115.701 30H32.3641C29.3502 30 26.4597 31.1973 24.3285 33.3285C22.1973 35.4597 21 38.3502 21 41.3641V94.3968C21 97.4108 22.1973 100.301 24.3285 102.432C26.4597 104.564 29.3502 105.761 32.3641 105.761H115.701C118.715 105.761 121.606 104.564 123.737 102.432C125.868 100.301 127.065 97.4108 127.065 94.3968V41.3641C127.065 38.3502 125.868 35.4597 123.737 33.3285C121.606 31.1973 118.715 30 115.701 30ZM77.8207 90.6088C76.8161 90.6088 75.8526 90.2097 75.1422 89.4993C74.4318 88.7889 74.0327 87.8254 74.0327 86.8207C74.0327 78.4491 68.9188 71.6685 62.6685 71.6685H55.0924C48.8421 71.6685 43.7283 78.4491 43.7283 86.8207C43.7283 87.8254 43.3292 88.7889 42.6188 89.4993C41.9084 90.2097 40.9449 90.6088 39.9402 90.6088C38.9356 90.6088 37.9721 90.2097 37.2617 89.4993C36.5513 88.7889 36.1522 87.8254 36.1522 86.8207C36.1522 75.9869 42.5161 66.9335 50.9635 64.6606C49.3408 63.0849 48.2254 61.0608 47.7597 58.8475C47.2941 56.6341 47.4996 54.3322 48.3498 52.2362C49.2 50.1403 50.6563 48.3458 52.5323 47.0823C54.4083 45.8188 56.6187 45.1439 58.8805 45.1439C61.1423 45.1439 63.3526 45.8188 65.2286 47.0823C67.1046 48.3458 68.5609 50.1403 69.4112 52.2362C70.2614 54.3322 70.4668 56.6341 70.0012 58.8475C69.5356 61.0608 68.4201 63.0849 66.7975 64.6606C75.2448 66.9335 81.6088 76.0248 81.6088 86.8207C81.6088 87.8254 81.2097 88.7889 80.4993 89.4993C79.7889 90.2097 78.8254 90.6088 77.8207 90.6088ZM108.125 83.0327H96.761C95.7563 83.0327 94.7928 82.6336 94.0824 81.9232C93.372 81.2128 92.9729 80.2493 92.9729 79.2446C92.9729 78.24 93.372 77.2765 94.0824 76.5661C94.7928 75.8557 95.7563 75.4566 96.761 75.4566H108.125C109.13 75.4566 110.093 75.8557 110.804 76.5661C111.514 77.2765 111.913 78.24 111.913 79.2446C111.913 80.2493 111.514 81.2128 110.804 81.9232C110.093 82.6336 109.13 83.0327 108.125 83.0327ZM108.125 67.8805H85.3968C84.3922 67.8805 83.4286 67.4814 82.7183 66.771C82.0079 66.0606 81.6088 65.0971 81.6088 64.0924C81.6088 63.0878 82.0079 62.1243 82.7183 61.4139C83.4286 60.7035 84.3922 60.3044 85.3968 60.3044H108.125C109.13 60.3044 110.093 60.7035 110.804 61.4139C111.514 62.1243 111.913 63.0878 111.913 64.0924C111.913 65.0971 111.514 66.0606 110.804 66.771C110.093 67.4814 109.13 67.8805 108.125 67.8805ZM108.125 52.7283H96.761C95.7563 52.7283 94.7928 52.3292 94.0824 51.6188C93.372 50.9084 92.9729 49.9449 92.9729 48.9402C92.9729 47.9356 93.372 46.9721 94.0824 46.2617C94.7928 45.5513 95.7563 45.1522 96.761 45.1522H108.125C109.13 45.1522 110.093 45.5513 110.804 46.2617C111.514 46.9721 111.913 47.9356 111.913 48.9402C111.913 49.9449 111.514 50.9084 110.804 51.6188C110.093 52.3292 109.13 52.7283 108.125 52.7283Z" fill="url(#paint0_linear_335_317)"/>
<path d="M115.701 113.337H32.3641C29.3502 113.337 26.4597 114.534 24.3285 116.665C22.1973 118.797 21 121.687 21 124.701C21 127.715 22.1973 130.606 24.3285 132.737C26.4597 134.868 29.3502 136.065 32.3641 136.065H115.701C118.715 136.065 121.606 134.868 123.737 132.737C125.868 130.606 127.065 127.715 127.065 124.701C127.065 121.687 125.868 118.797 123.737 116.665C121.606 114.534 118.715 113.337 115.701 113.337Z" fill="url(#paint1_linear_335_317)"/>
<path d="M58.8805 60.3044C60.9725 60.3044 62.6685 58.6084 62.6685 56.5163C62.6685 54.4242 60.9725 52.7283 58.8805 52.7283C56.7884 52.7283 55.0924 54.4242 55.0924 56.5163C55.0924 58.6084 56.7884 60.3044 58.8805 60.3044Z" fill="url(#paint2_linear_335_317)"/>
<defs>
<linearGradient id="paint0_linear_335_317" x1="74.0327" y1="30" x2="74.0327" y2="105.761" gradientUnits="userSpaceOnUse">
<stop stop-color="#1DC19D"/>
<stop offset="0.9999" stop-color="#07755D"/>
<stop offset="1" stop-color="#052921"/>
</linearGradient>
<linearGradient id="paint1_linear_335_317" x1="74.0327" y1="113.337" x2="74.0327" y2="136.065" gradientUnits="userSpaceOnUse">
<stop stop-color="#1DC19D"/>
<stop offset="0.9999" stop-color="#07755D"/>
<stop offset="1" stop-color="#052921"/>
</linearGradient>
<linearGradient id="paint2_linear_335_317" x1="58.8805" y1="52.7283" x2="58.8805" y2="60.3044" gradientUnits="userSpaceOnUse">
<stop stop-color="#1DC19D"/>
<stop offset="0.9999" stop-color="#07755D"/>
<stop offset="1" stop-color="#052921"/>
</linearGradient>
</defs>
</svg>
