<svg width="251" height="251" viewBox="0 0 251 251" fill="none" xmlns="http://www.w3.org/2000/svg">
<g clip-path="url(#clip0_232_92)">
<g filter="url(#filter0_d_232_92)">
<rect x="-4" width="258.217" height="251.354" rx="26" fill="white"/>
</g>
<path d="M81.4547 190.498H77.1353V196.588H74.8222V179.522H81.4547C84.8064 179.522 86.9543 181.718 86.9543 184.998C86.9543 188.185 84.7828 190.498 81.4547 190.498ZM81.0535 181.6H77.1353V188.421H80.9591C83.2486 188.421 84.5232 187.075 84.5232 184.975C84.5232 182.827 83.225 181.6 81.0535 181.6ZM87.9112 190.805C87.9112 187.241 90.4603 184.739 93.93 184.739C97.3761 184.739 99.9253 187.241 99.9253 190.805C99.9253 194.369 97.3761 196.871 93.93 196.871C90.4603 196.871 87.9112 194.369 87.9112 190.805ZM90.1535 190.805C90.1535 193.212 91.6877 194.888 93.93 194.888C96.1488 194.888 97.7066 193.212 97.7066 190.805C97.7066 188.397 96.1488 186.721 93.93 186.721C91.6877 186.721 90.1535 188.397 90.1535 190.805ZM108.99 184.951V186.981H107.999C105.898 186.981 104.6 188.256 104.6 190.474V196.588H102.381V185.069H104.458L104.6 186.816C105.072 185.612 106.229 184.81 107.81 184.81C108.211 184.81 108.542 184.857 108.99 184.951ZM114.79 196.588H112.571V186.91H110.305V185.046H112.571V181.434H114.79V185.046H117.055V186.91H114.79V196.588ZM118.176 190.805C118.176 187.241 120.725 184.739 124.195 184.739C127.641 184.739 130.19 187.241 130.19 190.805C130.19 194.369 127.641 196.871 124.195 196.871C120.725 196.871 118.176 194.369 118.176 190.805ZM120.418 190.805C120.418 193.212 121.953 194.888 124.195 194.888C126.414 194.888 127.971 193.212 127.971 190.805C127.971 188.397 126.414 186.721 124.195 186.721C121.953 186.721 120.418 188.397 120.418 190.805ZM131.35 185.046H133.049V183.205C133.049 180.372 134.607 179.216 136.708 179.216C137.133 179.216 137.628 179.239 138.077 179.31V181.222H137.085C135.645 181.222 135.268 181.954 135.268 183.205V185.046H138.006V186.91H135.268V196.588H133.049V186.91H131.35V185.046ZM138.967 190.805C138.967 187.241 141.516 184.739 144.986 184.739C148.432 184.739 150.981 187.241 150.981 190.805C150.981 194.369 148.432 196.871 144.986 196.871C141.516 196.871 138.967 194.369 138.967 190.805ZM141.21 190.805C141.21 193.212 142.744 194.888 144.986 194.888C147.205 194.888 148.763 193.212 148.763 190.805C148.763 188.397 147.205 186.721 144.986 186.721C142.744 186.721 141.21 188.397 141.21 190.805ZM155.703 196.588H153.485V179.216H155.703V196.588ZM160.055 182.308C159.253 182.308 158.592 181.647 158.592 180.844C158.592 180.018 159.253 179.381 160.055 179.381C160.858 179.381 161.519 180.018 161.519 180.844C161.519 181.647 160.858 182.308 160.055 182.308ZM158.969 196.588V185.046H161.188V196.588H158.969ZM163.654 190.805C163.654 187.241 166.203 184.739 169.673 184.739C173.119 184.739 175.668 187.241 175.668 190.805C175.668 194.369 173.119 196.871 169.673 196.871C166.203 196.871 163.654 194.369 163.654 190.805ZM165.896 190.805C165.896 193.212 167.431 194.888 169.673 194.888C171.892 194.888 173.449 193.212 173.449 190.805C173.449 188.397 171.892 186.721 169.673 186.721C167.431 186.721 165.896 188.397 165.896 190.805ZM107.582 228.588H101.941V211.522H107.488C112.586 211.522 116.032 214.969 116.032 220.067C116.032 225.142 112.633 228.588 107.582 228.588ZM107.322 213.647H104.254V226.44H107.417C111.217 226.44 113.624 223.985 113.624 220.067C113.624 216.101 111.217 213.647 107.322 213.647ZM121.972 228.871C119.494 228.871 118.031 227.478 118.031 225.378C118.031 223.253 119.612 221.931 122.326 221.719L125.961 221.436V221.105C125.961 219.17 124.805 218.485 123.247 218.485C121.382 218.485 120.32 219.312 120.32 220.704H118.385C118.385 218.297 120.367 216.715 123.341 216.715C126.197 216.715 128.133 218.226 128.133 221.341V228.588H126.245L126.009 226.723C125.419 228.045 123.837 228.871 121.972 228.871ZM122.61 227.148C124.71 227.148 125.985 225.779 125.985 223.607V222.994L123.035 223.23C121.075 223.419 120.273 224.174 120.273 225.307C120.273 226.534 121.17 227.148 122.61 227.148ZM134.278 228.588H132.06V218.91H129.794V217.046H132.06V213.434H134.278V217.046H136.544V218.91H134.278V228.588ZM141.773 228.871C139.294 228.871 137.831 227.478 137.831 225.378C137.831 223.253 139.412 221.931 142.127 221.719L145.761 221.436V221.105C145.761 219.17 144.605 218.485 143.047 218.485C141.182 218.485 140.12 219.312 140.12 220.704H138.185C138.185 218.297 140.167 216.715 143.141 216.715C145.998 216.715 147.933 218.226 147.933 221.341V228.588H146.045L145.809 226.723C145.219 228.045 143.637 228.871 141.773 228.871ZM142.41 227.148C144.51 227.148 145.785 225.779 145.785 223.607V222.994L142.835 223.23C140.876 223.419 140.073 224.174 140.073 225.307C140.073 226.534 140.97 227.148 142.41 227.148Z" fill="#097B62"/>
<path d="M172.666 36.0303H77.5934C74.155 36.0303 70.8574 37.3962 68.4261 39.8275C65.9948 42.2588 64.6289 45.5563 64.6289 48.9947V109.496C64.6289 112.934 65.9948 116.231 68.4261 118.663C70.8574 121.094 74.155 122.46 77.5934 122.46H172.666C176.104 122.46 179.402 121.094 181.833 118.663C184.265 116.231 185.63 112.934 185.63 109.496V48.9947C185.63 45.5563 184.265 42.2588 181.833 39.8275C179.402 37.3962 176.104 36.0303 172.666 36.0303ZM129.451 105.174C128.305 105.174 127.206 104.719 126.395 103.908C125.585 103.098 125.13 101.999 125.13 100.853C125.13 91.3021 119.296 83.5666 112.165 83.5666H103.522C96.3918 83.5666 90.5578 91.3021 90.5578 100.853C90.5578 101.999 90.1025 103.098 89.2921 103.908C88.4816 104.719 87.3825 105.174 86.2363 105.174C85.0902 105.174 83.991 104.719 83.1806 103.908C82.3701 103.098 81.9148 101.999 81.9148 100.853C81.9148 88.4931 89.1749 78.1647 98.8118 75.5719C96.9607 73.7742 95.6882 71.4651 95.157 68.9401C94.6258 66.415 94.8602 63.7889 95.8301 61.3979C96.8001 59.0068 98.4614 56.9595 100.602 55.5181C102.742 54.0767 105.263 53.3068 107.844 53.3068C110.424 53.3068 112.946 54.0767 115.086 55.5181C117.226 56.9595 118.887 59.0068 119.857 61.3979C120.827 63.7889 121.062 66.415 120.531 68.9401C119.999 71.4651 118.727 73.7742 116.876 75.5719C126.513 78.1647 133.773 88.5363 133.773 100.853C133.773 101.999 133.317 103.098 132.507 103.908C131.696 104.719 130.597 105.174 129.451 105.174ZM164.023 96.5311H151.059C149.912 96.5311 148.813 96.0758 148.003 95.2653C147.192 94.4549 146.737 93.3557 146.737 92.2096C146.737 91.0634 147.192 89.9643 148.003 89.1538C148.813 88.3434 149.912 87.8881 151.059 87.8881H164.023C165.169 87.8881 166.268 88.3434 167.079 89.1538C167.889 89.9643 168.345 91.0634 168.345 92.2096C168.345 93.3557 167.889 94.4549 167.079 95.2653C166.268 96.0758 165.169 96.5311 164.023 96.5311ZM164.023 79.2451H138.094C136.948 79.2451 135.849 78.7898 135.038 77.9794C134.228 77.1689 133.773 76.0698 133.773 74.9236C133.773 73.7775 134.228 72.6783 135.038 71.8679C135.849 71.0574 136.948 70.6021 138.094 70.6021H164.023C165.169 70.6021 166.268 71.0574 167.079 71.8679C167.889 72.6783 168.345 73.7775 168.345 74.9236C168.345 76.0698 167.889 77.1689 167.079 77.9794C166.268 78.7898 165.169 79.2451 164.023 79.2451ZM164.023 61.9592H151.059C149.912 61.9592 148.813 61.5039 148.003 60.6934C147.192 59.883 146.737 58.7838 146.737 57.6377C146.737 56.4916 147.192 55.3924 148.003 54.5819C148.813 53.7715 149.912 53.3162 151.059 53.3162H164.023C165.169 53.3162 166.268 53.7715 167.079 54.5819C167.889 55.3924 168.345 56.4916 168.345 57.6377C168.345 58.7838 167.889 59.883 167.079 60.6934C166.268 61.5039 165.169 61.9592 164.023 61.9592Z" fill="url(#paint0_linear_232_92)"/>
<path d="M172.666 131.103H77.5934C74.155 131.103 70.8574 132.469 68.4261 134.9C65.9948 137.331 64.6289 140.629 64.6289 144.067C64.6289 147.506 65.9948 150.803 68.4261 153.234C70.8574 155.666 74.155 157.032 77.5934 157.032H172.666C176.104 157.032 179.402 155.666 181.833 153.234C184.265 150.803 185.63 147.506 185.63 144.067C185.63 140.629 184.265 137.331 181.833 134.9C179.402 132.469 176.104 131.103 172.666 131.103Z" fill="url(#paint1_linear_232_92)"/>
<path d="M107.844 70.6022C110.23 70.6022 112.165 68.6674 112.165 66.2807C112.165 63.894 110.23 61.9592 107.844 61.9592C105.457 61.9592 103.522 63.894 103.522 66.2807C103.522 68.6674 105.457 70.6022 107.844 70.6022Z" fill="url(#paint2_linear_232_92)"/>
</g>
<defs>
<filter id="filter0_d_232_92" x="-18.4" y="-10.4" width="287.017" height="280.154" filterUnits="userSpaceOnUse" color-interpolation-filters="sRGB">
<feFlood flood-opacity="0" result="BackgroundImageFix"/>
<feColorMatrix in="SourceAlpha" type="matrix" values="0 0 0 0 0 0 0 0 0 0 0 0 0 0 0 0 0 0 127 0" result="hardAlpha"/>
<feOffset dy="4"/>
<feGaussianBlur stdDeviation="7.2"/>
<feComposite in2="hardAlpha" operator="out"/>
<feColorMatrix type="matrix" values="0 0 0 0 0 0 0 0 0 0 0 0 0 0 0 0 0 0 0.25 0"/>
<feBlend mode="normal" in2="BackgroundImageFix" result="effect1_dropShadow_232_92"/>
<feBlend mode="normal" in="SourceGraphic" in2="effect1_dropShadow_232_92" result="shape"/>
</filter>
<linearGradient id="paint0_linear_232_92" x1="125.13" y1="36.0303" x2="125.13" y2="122.46" gradientUnits="userSpaceOnUse">
<stop stop-color="#1DC19D"/>
<stop offset="0.9999" stop-color="#07755D"/>
<stop offset="1" stop-color="#052921"/>
</linearGradient>
<linearGradient id="paint1_linear_232_92" x1="125.13" y1="131.103" x2="125.13" y2="157.032" gradientUnits="userSpaceOnUse">
<stop stop-color="#1DC19D"/>
<stop offset="0.9999" stop-color="#07755D"/>
<stop offset="1" stop-color="#052921"/>
</linearGradient>
<linearGradient id="paint2_linear_232_92" x1="107.844" y1="61.9592" x2="107.844" y2="70.6022" gradientUnits="userSpaceOnUse">
<stop stop-color="#1DC19D"/>
<stop offset="0.9999" stop-color="#07755D"/>
<stop offset="1" stop-color="#052921"/>
</linearGradient>
<clipPath id="clip0_232_92">
<rect width="251" height="251" fill="white"/>
</clipPath>
</defs>
</svg>
