<svg width="74" height="74" viewBox="0 0 74 74" fill="none" xmlns="http://www.w3.org/2000/svg">
<mask id="mask0_180_317" style="mask-type:alpha" maskUnits="userSpaceOnUse" x="0" y="0" width="74" height="74">
<rect width="73.8336" height="73.8336" fill="#FEFEFE"/>
</mask>
<g mask="url(#mask0_180_317)">
<path d="M55.375 21.5346H18.4582V9.229H55.375V21.5346ZM55.375 38.4548C56.2467 38.4548 56.9773 38.16 57.567 37.5703C58.1566 36.9807 58.4514 36.2501 58.4514 35.3784C58.4514 34.5068 58.1566 33.7761 57.567 33.1865C56.9773 32.5968 56.2467 32.302 55.375 32.302C54.5034 32.302 53.7728 32.5968 53.1831 33.1865C52.5935 33.7761 52.2986 34.5068 52.2986 35.3784C52.2986 36.2501 52.5935 36.9807 53.1831 37.5703C53.7728 38.16 54.5034 38.4548 55.375 38.4548ZM49.2222 58.4514V46.1458H24.611V58.4514H49.2222ZM55.375 64.6042H18.4582V52.2986H6.15265V33.8402C6.15265 31.2253 7.04993 29.0333 8.8445 27.2644C10.6391 25.4955 12.8182 24.611 15.3818 24.611H58.4514C61.0664 24.611 63.2583 25.4955 65.0273 27.2644C66.7962 29.0333 67.6806 31.2253 67.6806 33.8402V52.2986H55.375V64.6042Z" fill="#FEFEFE"/>
</g>
</svg>
