<svg width="30" height="30" viewBox="0 0 30 30" fill="none" xmlns="http://www.w3.org/2000/svg">
<mask id="mask0_355_105" style="mask-type:alpha" maskUnits="userSpaceOnUse" x="0" y="0" width="30" height="30">
<rect x="0.000305176" width="29.7388" height="29.7388" fill="#FEFEFE"/>
</mask>
<g mask="url(#mask0_355_105)">
<path d="M6.19588 27.2608C5.51437 27.2608 4.93095 27.0182 4.44563 26.5329C3.96031 26.0475 3.71765 25.4641 3.71765 24.7826V7.43498C3.71765 6.75347 3.96031 6.17005 4.44563 5.68473C4.93095 5.19941 5.51437 4.95675 6.19588 4.95675H7.435V2.47852H9.91323V4.95675H19.8262V2.47852H22.3044V4.95675H23.5435C24.225 4.95675 24.8084 5.19941 25.2938 5.68473C25.7791 6.17005 26.0217 6.75347 26.0217 7.43498V13.2278C26.0217 13.5789 25.903 13.8732 25.6655 14.1107C25.428 14.3482 25.1337 14.467 24.7826 14.467C24.4315 14.467 24.1373 14.3482 23.8998 14.1107C23.6623 13.8732 23.5435 13.5789 23.5435 13.2278V12.3914H6.19588V24.7826H13.3828C13.7338 24.7826 14.0281 24.9014 14.2656 25.1389C14.5031 25.3763 14.6219 25.6706 14.6219 26.0217C14.6219 26.3728 14.5031 26.6671 14.2656 26.9046C14.0281 27.1421 13.7338 27.2608 13.3828 27.2608H6.19588ZM22.3044 28.5C20.5903 28.5 19.1292 27.8959 17.921 26.6877C16.7129 25.4796 16.1088 24.0185 16.1088 22.3044C16.1088 20.5903 16.7129 19.1291 17.921 17.921C19.1292 16.7129 20.5903 16.1088 22.3044 16.1088C24.0185 16.1088 25.4796 16.7129 26.6878 17.921C27.8959 19.1291 28.5 20.5903 28.5 22.3044C28.5 24.0185 27.8959 25.4796 26.6878 26.6877C25.4796 27.8959 24.0185 28.5 22.3044 28.5ZM24.3799 25.2473L25.2473 24.3799L22.924 22.0565V18.587H21.6848V22.5522L24.3799 25.2473Z" fill="#FEFEFE"/>
</g>
</svg>
