<svg width="31" height="30" viewBox="0 0 31 30" fill="none" xmlns="http://www.w3.org/2000/svg">
<mask id="mask0_355_108" style="mask-type:alpha" maskUnits="userSpaceOnUse" x="0" y="0" width="31" height="30">
<rect x="0.517578" width="29.7388" height="29.7388" fill="#D9D9D9"/>
</mask>
<g mask="url(#mask0_355_108)">
<path d="M14.1479 25.9593C11.649 25.6496 9.57863 24.5602 7.9368 22.6912C6.29497 20.8222 5.47406 18.6279 5.47406 16.1084C5.47406 14.7453 5.74254 13.4391 6.27949 12.1897C6.81644 10.9402 7.58056 9.85084 8.57185 8.9215L10.3376 10.6872C9.55282 11.3894 8.95907 12.2052 8.55636 13.1345C8.15365 14.0638 7.95229 15.0551 7.95229 16.1084C7.95229 17.9257 8.53055 19.5314 9.68705 20.9254C10.8436 22.3194 12.3305 23.1713 14.1479 23.4811V25.9593ZM16.6261 25.9593V23.4811C18.4228 23.1507 19.9046 22.2936 21.0714 20.9099C22.2383 19.5263 22.8217 17.9257 22.8217 16.1084C22.8217 14.0432 22.0989 12.2878 20.6532 10.8421C19.2076 9.3965 17.4522 8.67368 15.387 8.67368H15.2941L16.6571 10.0367L14.9223 11.7715L10.5854 7.43456L14.9223 3.09766L16.6571 4.83242L15.2941 6.19545H15.387C18.1543 6.19545 20.4983 7.15576 22.419 9.07639C24.3396 10.997 25.2999 13.341 25.2999 16.1084C25.2999 18.6073 24.479 20.7912 22.8372 22.6602C21.1953 24.5292 19.125 25.6289 16.6261 25.9593Z" fill="white"/>
</g>
</svg>
