<svg viewBox="0 0 27 27" xmlns="http://www.w3.org/2000/svg">
    <path fill-rule="evenodd" clip-rule="evenodd"
        d="M8.4021 9.02356C8.11953 9.02356 7.84853 9.13581 7.64873 9.33562C7.44892 9.53542 7.33667 9.80642 7.33667 10.089C7.33667 10.3716 7.44892 10.6426 7.64873 10.8424C7.84853 11.0422 8.11953 11.1544 8.4021 11.1544H19.0564C19.339 11.1544 19.61 11.0422 19.8098 10.8424C20.0096 10.6426 20.1218 10.3716 20.1218 10.089C20.1218 9.80642 20.0096 9.53542 19.8098 9.33562C19.61 9.13581 19.339 9.02356 19.0564 9.02356H8.4021ZM8.4021 12.2198C8.11953 12.2198 7.84853 12.3321 7.64873 12.5319C7.44892 12.7317 7.33667 13.0027 7.33667 13.2853C7.33667 13.5678 7.44892 13.8388 7.64873 14.0387C7.84853 14.2385 8.11953 14.3507 8.4021 14.3507H14.7947C15.0772 14.3507 15.3482 14.2385 15.548 14.0387C15.7479 13.8388 15.8601 13.5678 15.8601 13.2853C15.8601 13.0027 15.7479 12.7317 15.548 12.5319C15.3482 12.3321 15.0772 12.2198 14.7947 12.2198H8.4021ZM8.33178 2.63098H19.1267C20.0707 2.63098 20.8847 2.63098 21.5367 2.71835C22.2346 2.8121 22.9047 3.02412 23.447 3.56749C23.9904 4.11086 24.2024 4.77995 24.2962 5.47781C24.3835 6.12985 24.3835 6.94384 24.3835 7.88781V14.421C24.3835 15.365 24.3835 16.179 24.2962 16.831C24.2024 17.5289 23.9904 18.199 23.447 18.7413C22.9037 19.2847 22.2346 19.4967 21.5367 19.5905C20.8847 19.6779 20.0707 19.6779 19.1267 19.6779H16.9831L14.7776 23.2066C14.6666 23.3845 14.5121 23.5312 14.3287 23.6329C14.1452 23.7346 13.939 23.788 13.7292 23.788C13.5195 23.788 13.3132 23.7346 13.1298 23.6329C12.9464 23.5312 12.7919 23.3845 12.6809 23.2066L10.4754 19.6779H8.33178C7.38781 19.6779 6.57382 19.6779 5.92178 19.5905C5.22392 19.4967 4.55377 19.2847 4.01146 18.7413C3.46809 18.198 3.25607 17.5289 3.16232 16.831C3.07495 16.179 3.07495 15.365 3.07495 14.421V7.88781C3.07495 6.94384 3.07495 6.12985 3.16232 5.47781C3.25607 4.77995 3.46809 4.1098 4.01146 3.56749C4.55483 3.02412 5.22392 2.8121 5.92178 2.71835C6.57382 2.63098 7.38781 2.63098 8.33178 2.63098Z"
    />
</svg>