<svg width="26" height="26" viewBox="0 0 26 26" fill="none" xmlns="http://www.w3.org/2000/svg">
<mask id="mask0_362_342" style="mask-type:alpha" maskUnits="userSpaceOnUse" x="0" y="0" width="26" height="26">
<rect width="25.57" height="25.57" fill="#D9D9D9"/>
</mask>
<g mask="url(#mask0_362_342)">
<path d="M17.5794 20.2429C18.3252 20.2429 18.9556 19.9854 19.4705 19.4705C19.9855 18.9555 20.243 18.3252 20.243 17.5794C20.243 16.8336 19.9855 16.2032 19.4705 15.6883C18.9556 15.1733 18.3252 14.9158 17.5794 14.9158C16.8336 14.9158 16.2033 15.1733 15.6883 15.6883C15.1733 16.2032 14.9159 16.8336 14.9159 17.5794C14.9159 18.3252 15.1733 18.9555 15.6883 19.4705C16.2033 19.9854 16.8336 20.2429 17.5794 20.2429ZM23.013 24.5046L20.1364 21.6546C19.7635 21.8854 19.3595 22.063 18.9245 22.1873C18.4895 22.3116 18.0411 22.3737 17.5794 22.3737C16.2476 22.3737 15.1156 21.9076 14.1834 20.9754C13.2512 20.0431 12.785 18.9111 12.785 17.5794C12.785 16.2476 13.2512 15.1156 14.1834 14.1834C15.1156 13.2511 16.2476 12.785 17.5794 12.785C18.9112 12.785 20.0432 13.2511 20.9754 14.1834C21.9077 15.1156 22.3738 16.2476 22.3738 17.5794C22.3738 18.0588 22.3072 18.516 22.174 18.9511C22.0408 19.3861 21.8588 19.7901 21.628 20.163L24.5046 23.013L23.013 24.5046ZM5.32712 23.4392C4.74114 23.4392 4.23951 23.2305 3.82222 22.8132C3.40493 22.3959 3.19629 21.8943 3.19629 21.3083V4.26166C3.19629 3.67568 3.40493 3.17405 3.82222 2.75676C4.23951 2.33947 4.74114 2.13083 5.32712 2.13083H13.8505L20.243 8.52333V11.1869C19.8168 11.0093 19.3817 10.8761 18.9378 10.7873C18.4939 10.6986 18.0411 10.6542 17.5794 10.6542C16.585 10.6542 15.6572 10.8406 14.796 11.2135C13.9348 11.5864 13.1934 12.1102 12.572 12.785H7.45796V14.9158H11.1869C11.0449 15.2532 10.9339 15.5995 10.854 15.9546C10.7741 16.3097 10.7164 16.6738 10.6808 17.0467H7.45796V19.1775H10.8407C11.036 20.0653 11.3911 20.8777 11.9061 21.6146C12.421 22.3515 13.078 22.9597 13.8771 23.4392H5.32712ZM12.785 9.58874H18.1121L12.785 4.26166V9.58874Z" fill="white"/>
</g>
</svg>
