<svg viewBox="0 0 27 27" fill="currentColor" xmlns="http://www.w3.org/2000/svg">
    <path fill-rule="evenodd" clip-rule="evenodd"
        d="M16.9511 24.0957C18.2861 24.0957 19.4314 24.0254 20.3892 23.8134C21.3588 23.5971 22.1983 23.2221 22.8547 22.5668C23.5099 21.9105 23.8849 21.0709 24.1012 20.1014C24.3143 19.1436 24.3835 17.9982 24.3835 16.6633V13.4414C24.3835 12.8763 24.159 12.3343 23.7594 11.9347C23.3598 11.535 22.8178 11.3105 22.2527 11.3105H13.7292C13.1641 11.3105 12.6221 11.535 12.2225 11.9347C11.8229 12.3343 11.5984 12.8763 11.5984 13.4414V21.9648C11.5984 22.53 11.8229 23.072 12.2225 23.4716C12.6221 23.8712 13.1641 24.0957 13.7292 24.0957H16.9511ZM3.07495 16.6633C3.07495 17.9982 3.14527 19.1436 3.35836 20.1014C3.57357 21.0709 3.9486 21.9105 4.60491 22.5668C5.26015 23.2221 6.09971 23.5971 7.06925 23.8134C7.16194 23.8336 7.2557 23.8528 7.34946 23.8709C8.50438 24.0946 9.46753 23.1166 9.46753 21.9393V13.4414C9.46753 12.8763 9.24303 12.3343 8.84342 11.9347C8.4438 11.535 7.90181 11.3105 7.33667 11.3105H5.20581C4.64067 11.3105 4.09868 11.535 3.69907 11.9347C3.29945 12.3343 3.07495 12.8763 3.07495 13.4414V16.6633ZM10.5074 2.78711C9.17241 2.78711 8.02707 2.85743 7.06925 3.07051C6.09971 3.28573 5.26015 3.66076 4.60384 4.31707C3.9486 4.97231 3.57357 5.81186 3.35729 6.78141C3.34024 6.86131 3.3232 6.94122 3.30828 7.02113C3.07921 8.19203 4.07539 9.17969 5.26867 9.17969H22.2271C23.4044 9.17969 24.3825 8.21654 24.1587 7.06161C24.1405 6.96795 24.1209 6.87454 24.1001 6.78141C23.8849 5.81186 23.5099 4.97231 22.8536 4.316C22.1983 3.66076 21.3588 3.28573 20.3892 3.06945C19.4314 2.85636 18.2861 2.78711 16.9511 2.78711H10.5074Z"
    />
</svg>