<svg width="154" height="153" viewBox="0 0 154 153" xmlns="http://www.w3.org/2000/svg">
<mask id="mask0_119_596" style="mask-type:alpha" maskUnits="userSpaceOnUse" x="0" y="0" width="154" height="154">
<rect x="0.329712" y="0.309448" width="152.7" height="152.7" />
</mask>
<g mask="url(#mask0_119_596)">
<path d="M32.1421 133.922V70.2967C28.6428 70.2967 25.6471 69.0507 23.1551 66.5588C20.6631 64.0668 19.4172 61.0711 19.4172 57.5717V23.8506C19.4172 22.5781 19.8413 21.5177 20.6897 20.6693C21.538 19.821 22.5984 19.3969 23.8709 19.3969C25.1434 19.3969 26.2038 19.821 27.0521 20.6693C27.9005 21.5177 28.3246 22.5781 28.3246 23.8506V44.8468H34.0509V23.8506C34.0509 22.5781 34.475 21.5177 35.3234 20.6693C36.1717 19.821 37.2321 19.3969 38.5046 19.3969C39.7771 19.3969 40.8375 19.821 41.6859 20.6693C42.5342 21.5177 42.9583 22.5781 42.9583 23.8506V44.8468H48.6846V23.8506C48.6846 22.5781 49.1087 21.5177 49.9571 20.6693C50.8054 19.821 51.8658 19.3969 53.1383 19.3969C54.4108 19.3969 55.4712 19.821 56.3196 20.6693C57.1679 21.5177 57.5921 22.5781 57.5921 23.8506V57.5717C57.5921 61.0711 56.3461 64.0668 53.8541 66.5588C51.3621 69.0507 48.3665 70.2967 44.8671 70.2967V133.922H32.1421ZM76.6795 133.922V69.6605C72.2258 67.5396 68.9915 64.2258 66.9767 59.7191C64.9619 55.2123 63.9545 50.467 63.9545 45.483C63.9545 38.8024 65.6247 32.7846 68.965 27.4295C72.3053 22.0744 76.9976 19.3969 83.042 19.3969C89.0863 19.3969 93.7787 22.0744 97.119 27.4295C100.459 32.7846 102.129 38.8024 102.129 45.483C102.129 50.467 101.122 55.2123 99.1073 59.7191C97.0925 64.2258 93.8582 67.5396 89.4045 69.6605V133.922H76.6795ZM108.492 133.922V19.3969C115.491 19.3969 121.482 21.8888 126.466 26.8728C131.45 31.8567 133.942 37.8481 133.942 44.8468V83.0217H121.217V133.922H108.492Z" />
</g>
</svg>
