<svg viewBox="0 0 122 122" xmlns="http://www.w3.org/2000/svg">
<path d="M108.666 0.0302734H13.5935C10.1551 0.0302734 6.85754 1.39617 4.42623 3.82747C1.99492 6.25878 0.629028 9.55634 0.629028 12.9947V73.4955C0.629028 76.9339 1.99492 80.2315 4.42623 82.6628C6.85754 85.0941 10.1551 86.46 13.5935 86.46H108.666C112.105 86.46 115.402 85.0941 117.833 82.6628C120.265 80.2315 121.631 76.9339 121.631 73.4955V12.9947C121.631 9.55634 120.265 6.25878 117.833 3.82747C115.402 1.39617 112.105 0.0302734 108.666 0.0302734ZM65.4513 69.174C64.3052 69.174 63.206 68.7187 62.3955 67.9083C61.5851 67.0979 61.1298 65.9987 61.1298 64.8525C61.1298 55.3021 55.2958 47.5666 48.1654 47.5666H39.5224C32.3919 47.5666 26.5579 55.3021 26.5579 64.8525C26.5579 65.9987 26.1026 67.0979 25.2922 67.9083C24.4818 68.7187 23.3826 69.174 22.2365 69.174C21.0903 69.174 19.9911 68.7187 19.1807 67.9083C18.3703 67.0979 17.915 65.9987 17.915 64.8525C17.915 52.4931 25.1751 42.1647 34.812 39.5719C32.9609 37.7742 31.6883 35.4651 31.1571 32.9401C30.6259 30.415 30.8603 27.7889 31.8302 25.3979C32.8002 23.0068 34.4616 20.9595 36.6018 19.5181C38.7419 18.0767 41.2636 17.3068 43.8439 17.3068C46.4242 17.3068 48.9458 18.0767 51.086 19.5181C53.2262 20.9595 54.8876 23.0068 55.8575 25.3979C56.8275 27.7889 57.0618 30.415 56.5306 32.9401C55.9995 35.4651 54.7269 37.7742 52.8758 39.5719C62.5127 42.1647 69.7728 52.5363 69.7728 64.8525C69.7728 65.9987 69.3175 67.0979 68.5071 67.9083C67.6966 68.7187 66.5974 69.174 65.4513 69.174ZM100.023 60.5311H87.0587C85.9126 60.5311 84.8134 60.0758 84.003 59.2653C83.1925 58.4549 82.7372 57.3557 82.7372 56.2096C82.7372 55.0634 83.1925 53.9643 84.003 53.1538C84.8134 52.3434 85.9126 51.8881 87.0587 51.8881H100.023C101.169 51.8881 102.268 52.3434 103.079 53.1538C103.889 53.9643 104.345 55.0634 104.345 56.2096C104.345 57.3557 103.889 58.4549 103.079 59.2653C102.268 60.0758 101.169 60.5311 100.023 60.5311ZM100.023 43.2451H74.0943C72.9481 43.2451 71.8489 42.7898 71.0385 41.9794C70.2281 41.1689 69.7728 40.0698 69.7728 38.9236C69.7728 37.7775 70.2281 36.6783 71.0385 35.8679C71.8489 35.0574 72.9481 34.6021 74.0943 34.6021H100.023C101.169 34.6021 102.268 35.0574 103.079 35.8679C103.889 36.6783 104.345 37.7775 104.345 38.9236C104.345 40.0698 103.889 41.1689 103.079 41.9794C102.268 42.7898 101.169 43.2451 100.023 43.2451ZM100.023 25.9592H87.0587C85.9126 25.9592 84.8134 25.5039 84.003 24.6934C83.1925 23.883 82.7372 22.7838 82.7372 21.6377C82.7372 20.4916 83.1925 19.3924 84.003 18.5819C84.8134 17.7715 85.9126 17.3162 87.0587 17.3162H100.023C101.169 17.3162 102.268 17.7715 103.079 18.5819C103.889 19.3924 104.345 20.4916 104.345 21.6377C104.345 22.7838 103.889 23.883 103.079 24.6934C102.268 25.5039 101.169 25.9592 100.023 25.9592Z"/>
<path d="M108.666 95.1029H13.5934C10.155 95.1029 6.85747 96.4688 4.42617 98.9001C1.99486 101.331 0.628967 104.629 0.628967 108.067C0.628967 111.506 1.99486 114.803 4.42617 117.235C6.85747 119.666 10.155 121.032 13.5934 121.032H108.666C112.104 121.032 115.402 119.666 117.833 117.235C120.265 114.803 121.631 111.506 121.631 108.067C121.631 104.629 120.265 101.331 117.833 98.9001C115.402 96.4688 112.104 95.1029 108.666 95.1029Z" />
<path d="M43.8438 34.6021C46.2305 34.6021 48.1653 32.6673 48.1653 30.2806C48.1653 27.8939 46.2305 25.9591 43.8438 25.9591C41.4571 25.9591 39.5223 27.8939 39.5223 30.2806C39.5223 32.6673 41.4571 34.6021 43.8438 34.6021Z" />
</svg>
