<svg width="137" height="137" viewBox="0 0 137 137" xmlns="http://www.w3.org/2000/svg">
    <mask id="mask0_125_1530" style="mask-type:alpha" maskUnits="userSpaceOnUse" x="0" y="0"
        width="137" height="137">
        <rect width="136.337" height="136.337" />
    </mask>
    <g mask="url(#mask0_125_1530)">
        <path
            d="M96.572 124.975L94.8678 116.454C93.7316 115.981 92.6665 115.484 91.6724 114.963C90.6783 114.442 89.6605 113.803 88.619 113.046L80.382 115.602L74.7013 105.945L81.2341 100.264C81.0447 99.1283 80.95 97.8974 80.95 96.5719C80.95 95.2464 81.0447 94.0156 81.2341 92.8795L74.7013 87.1988L80.382 77.5416L88.619 80.0979C89.6605 79.3405 90.6783 78.7014 91.6724 78.1807C92.6665 77.6599 93.7316 77.1629 94.8678 76.6895L96.572 68.1684H107.933L109.638 76.6895C110.774 77.1629 111.839 77.6599 112.833 78.1807C113.827 78.7014 114.845 79.3405 115.886 80.0979L124.123 77.5416L129.804 87.1988L123.271 92.8795C123.461 94.0156 123.555 95.2464 123.555 96.5719C123.555 97.8974 123.461 99.1283 123.271 100.264L129.804 105.945L124.123 115.602L115.886 113.046C114.845 113.803 113.827 114.442 112.833 114.963C111.839 115.484 110.774 115.981 109.638 116.454L107.933 124.975H96.572ZM102.253 107.933C105.377 107.933 108.052 106.821 110.277 104.596C112.502 102.371 113.614 99.6963 113.614 96.5719C113.614 93.4475 112.502 90.7729 110.277 88.5479C108.052 86.323 105.377 85.2105 102.253 85.2105C99.1283 85.2105 96.4536 86.323 94.2287 88.5479C92.0038 90.7729 90.8913 93.4475 90.8913 96.5719C90.8913 99.6963 92.0038 102.371 94.2287 104.596C96.4536 106.821 99.1283 107.933 102.253 107.933ZM22.7228 113.614C19.5984 113.614 16.9238 112.502 14.6988 110.277C12.4739 108.052 11.3614 105.377 11.3614 102.253V34.0842C11.3614 30.9598 12.4739 28.2851 14.6988 26.0602C16.9238 23.8352 19.5984 22.7228 22.7228 22.7228H56.8071L68.1685 34.0842H113.614C116.738 34.0842 119.413 35.1967 121.638 37.4216C123.863 39.6465 124.976 42.3212 124.976 45.4456V64.0499C121.662 61.6829 118.064 59.8841 114.182 58.6532C110.3 57.4224 106.277 56.807 102.111 56.807C90.9386 56.807 81.5418 60.7125 73.9202 68.5235C66.2986 76.3344 62.4878 85.6366 62.4878 96.4299C62.4878 99.4596 62.8191 102.395 63.4819 105.235C64.1446 108.075 65.1388 110.868 66.4642 113.614H22.7228Z" />
    </g>
</svg>