<svg width="137" height="137" viewBox="0 0 137 137" xmlns="http://www.w3.org/2000/svg">
    <mask id="mask0_119_604" style="mask-type:alpha" maskUnits="userSpaceOnUse" x="0" y="0"
        width="137" height="137">
        <rect width="136.084" height="136.084" />
    </mask>
    <g mask="url(#mask0_119_604)">
        <path
            d="M33.1706 68.0423L31.4695 59.537C30.3355 59.0645 29.2723 58.5684 28.28 58.0486C27.2878 57.5288 26.2718 56.8909 25.2323 56.1349L17.0105 58.6865L11.3404 49.0472L17.8611 43.377C17.6721 42.1485 17.5776 40.9199 17.5776 39.6914C17.5776 38.4628 17.6721 37.2343 17.8611 36.0058L11.3404 30.3356L17.0105 20.6963L25.2323 23.2478C26.2718 22.4918 27.2878 21.8539 28.28 21.3342C29.2723 20.8144 30.3355 20.3182 31.4695 19.8457L33.1706 11.3405H44.5109L46.212 19.8457C47.346 20.3182 48.4092 20.8144 49.4015 21.3342C50.3938 21.8539 51.4097 22.4918 52.4492 23.2478L60.671 20.6963L66.3411 30.3356L59.8204 36.0058C60.0094 37.2343 60.1039 38.4628 60.1039 39.6914C60.1039 40.9199 60.0094 42.1485 59.8204 43.377L66.3411 49.0472L60.671 58.6865L52.4492 56.1349C51.4097 56.8909 50.3938 57.5288 49.4015 58.0486C48.4092 58.5684 47.346 59.0645 46.212 59.537L44.5109 68.0423H33.1706ZM38.8408 51.0317C41.9594 51.0317 44.6291 49.9213 46.8499 47.7005C49.0707 45.4797 50.1811 42.81 50.1811 39.6914C50.1811 36.5728 49.0707 33.9031 46.8499 31.6822C44.6291 29.4614 41.9594 28.351 38.8408 28.351C35.7222 28.351 33.0524 29.4614 30.8316 31.6822C28.6108 33.9031 27.5004 36.5728 27.5004 39.6914C27.5004 42.81 28.6108 45.4797 30.8316 47.7005C33.0524 49.9213 35.7222 51.0317 38.8408 51.0317ZM83.9187 130.414L81.3671 118.507C79.7606 117.94 78.2722 117.255 76.9019 116.451C75.5316 115.648 74.1849 114.727 72.8619 113.687L61.5215 117.373L53.5832 103.764L62.6555 95.8262C62.4665 94.1252 62.372 92.4241 62.372 90.723C62.372 89.022 62.4665 87.3209 62.6555 85.6199L53.5832 77.6816L61.5215 64.0732L72.8619 67.7588C74.1849 66.7193 75.5316 65.7979 76.9019 64.9946C78.2722 64.1913 79.7606 63.5062 81.3671 62.9391L83.9187 51.0317H99.7952L102.347 62.9391C103.953 63.5062 105.442 64.1913 106.812 64.9946C108.182 65.7979 109.529 66.7193 110.852 67.7588L122.192 64.0732L130.131 77.6816L121.058 85.6199C121.247 87.3209 121.342 89.022 121.342 90.723C121.342 92.4241 121.247 94.1252 121.058 95.8262L130.131 103.764L122.192 117.373L110.852 113.687C109.529 114.727 108.182 115.648 106.812 116.451C105.442 117.255 103.953 117.94 102.347 118.507L99.7952 130.414H83.9187ZM91.857 107.734C96.5821 107.734 100.599 106.08 103.906 102.772C107.214 99.4646 108.868 95.4482 108.868 90.723C108.868 85.9979 107.214 81.9815 103.906 78.6739C100.599 75.3663 96.5821 73.7125 91.857 73.7125C87.1318 73.7125 83.1154 75.3663 79.8078 78.6739C76.5002 81.9815 74.8464 85.9979 74.8464 90.723C74.8464 95.4482 76.5002 99.4646 79.8078 102.772C83.1154 106.08 87.1318 107.734 91.857 107.734Z" />
    </g>
</svg>