<svg viewBox="0 0 89 92" xmlns="http://www.w3.org/2000/svg">
<path d="M88.2113 42.4818L82.529 36.7995C82.3971 36.6675 82.2405 36.5629 82.0682 36.4915C81.8958 36.4201 81.7111 36.3833 81.5246 36.3833C81.338 36.3833 81.1533 36.4201 80.981 36.4915C80.8086 36.5629 80.6521 36.6675 80.5202 36.7995L74.8379 42.4818C74.7059 42.6136 74.6013 42.7702 74.5299 42.9425C74.4585 43.1149 74.4217 43.2996 74.4218 43.4861V57.6919C74.4217 57.8784 74.4584 58.0632 74.5298 58.2355C74.6012 58.4079 74.7058 58.5645 74.8377 58.6965C74.9696 58.8284 75.1263 58.933 75.2986 59.0044C75.471 59.0758 75.6558 59.1125 75.8423 59.1124H87.2069C87.3935 59.1125 87.5782 59.0758 87.7506 59.0044C87.923 58.933 88.0796 58.8284 88.2115 58.6965C88.3434 58.5645 88.4481 58.4079 88.5194 58.2355C88.5908 58.0632 88.6275 57.8784 88.6275 57.6919V43.4861C88.6275 43.2996 88.5907 43.1149 88.5193 42.9425C88.4479 42.7702 88.3432 42.6136 88.2113 42.4818Z" />
<path d="M63.0572 25.0187H20.44C20.2534 25.0186 20.0687 25.0553 19.8963 25.1267C19.7239 25.1981 19.5673 25.3027 19.4354 25.4346C19.3035 25.5666 19.1988 25.7232 19.1274 25.8956C19.0561 26.0679 19.0194 26.2527 19.0194 26.4392V47.7478C19.0194 48.0182 19.0965 48.283 19.2417 48.511C19.3869 48.7391 19.5943 48.9209 19.8393 49.0352L41.1479 58.9792C41.336 59.067 41.541 59.1124 41.7486 59.1124C41.9561 59.1124 42.1612 59.067 42.3493 58.9792L63.6579 49.0352C63.9029 48.9209 64.1102 48.7391 64.2554 48.511C64.4007 48.283 64.4778 48.0182 64.4777 47.7478V26.4392C64.4778 26.2527 64.4411 26.0679 64.3697 25.8956C64.2983 25.7232 64.1937 25.5666 64.0618 25.4346C63.9299 25.3027 63.7732 25.1981 63.6009 25.1267C63.4285 25.0553 63.2437 25.0186 63.0572 25.0187Z" />
<path d="M63.0572 25.0187H20.44C20.2534 25.0186 20.0687 25.0553 19.8963 25.1267C19.7239 25.1981 19.5673 25.3027 19.4354 25.4346C19.3035 25.5666 19.1988 25.7232 19.1274 25.8956C19.0561 26.0679 19.0194 26.2527 19.0194 26.4392V40.1297L41.1479 50.4558C41.336 50.5436 41.541 50.589 41.7486 50.589C41.9561 50.589 42.1612 50.5436 42.3493 50.4558L64.4777 40.1295V26.4392C64.4778 26.2527 64.4411 26.0679 64.3697 25.8956C64.2983 25.7232 64.1937 25.5666 64.0618 25.4346C63.9299 25.3027 63.7732 25.1981 63.6009 25.1267C63.4285 25.0553 63.2437 25.0186 63.0572 25.0187Z" />
<path d="M82.1225 19.4682L42.3464 1.00072C42.1589 0.914353 41.9549 0.869629 41.7485 0.869629C41.5421 0.869629 41.3381 0.914353 41.1506 1.00072L1.37454 19.4682C1.12882 19.5822 0.920829 19.7641 0.775075 19.9925C0.629321 20.2208 0.55188 20.4861 0.55188 20.757C0.55188 21.0279 0.629321 21.2931 0.775075 21.5214C0.920829 21.7498 1.12882 21.9317 1.37454 22.0457L41.1506 40.5132C41.338 40.6 41.542 40.645 41.7485 40.645C41.955 40.645 42.159 40.6 42.3464 40.5132L82.1225 22.0457C82.3682 21.9317 82.5762 21.7498 82.7219 21.5214C82.8677 21.2931 82.9451 21.0279 82.9451 20.757C82.9451 20.4861 82.8677 20.2208 82.7219 19.9925C82.5762 19.7641 82.3682 19.5822 82.1225 19.4682Z" />
<path d="M81.5246 33.5422C81.3381 33.5422 81.1533 33.5055 80.9809 33.4341C80.8086 33.3627 80.6519 33.2581 80.52 33.1262C80.3881 32.9943 80.2835 32.8376 80.2121 32.6653C80.1407 32.4929 80.104 32.3081 80.104 32.1216V22.1776H41.7486C41.3718 22.1776 41.0105 22.0279 40.7441 21.7615C40.4777 21.4951 40.328 21.1338 40.328 20.757C40.328 20.3802 40.4777 20.0189 40.7441 19.7525C41.0105 19.4861 41.3718 19.3364 41.7486 19.3364H81.5246C81.7112 19.3364 81.8959 19.3731 82.0683 19.4445C82.2407 19.5158 82.3973 19.6205 82.5292 19.7524C82.6611 19.8843 82.7658 20.0409 82.8372 20.2133C82.9085 20.3857 82.9452 20.5704 82.9452 20.757V32.1216C82.9452 32.3081 82.9085 32.4929 82.8372 32.6653C82.7658 32.8376 82.6611 32.9943 82.5292 33.1262C82.3973 33.2581 82.2407 33.3627 82.0683 33.4341C81.8959 33.5055 81.7112 33.5422 81.5246 33.5422Z" />
<path d="M81.5245 42.0656C84.6627 42.0656 87.2067 39.5216 87.2067 36.3833C87.2067 33.2451 84.6627 30.701 81.5245 30.701C78.3862 30.701 75.8422 33.2451 75.8422 36.3833C75.8422 39.5216 78.3862 42.0656 81.5245 42.0656Z" />
<path d="M69.8376 86.0535C67.9348 85.5346 65.8983 80.8636 65.8983 74.7388C65.8983 68.614 67.9348 63.943 69.8376 63.4242C70.1871 63.3287 70.487 63.1034 70.6759 62.7941C70.8648 62.4849 70.9284 62.1152 70.8538 61.7606C70.7791 61.406 70.5717 61.0933 70.2741 60.8866C69.9765 60.6798 69.6112 60.5945 69.2528 60.6482L41.7486 64.7796L14.2354 60.6468L13.539 60.547C13.4721 60.5375 13.4046 60.5329 13.3371 60.5331C9.28765 60.5331 6.23425 66.6399 6.23425 74.7388C6.23425 82.8377 9.28765 88.9445 13.3371 88.9445C13.4046 88.9448 13.4721 88.9401 13.539 88.9307L41.7486 84.6981L69.2528 88.8295C69.6111 88.8832 69.9765 88.7979 70.2741 88.5912C70.5716 88.3844 70.779 88.0717 70.8537 87.7171C70.9284 87.3626 70.8648 86.9928 70.6759 86.6836C70.487 86.3743 70.1871 86.1489 69.8376 86.0535Z" />
<path d="M47.4307 61.9536H36.0661C35.3129 61.9545 34.5907 62.2541 34.0581 62.7867C33.5254 63.3193 33.2258 64.0415 33.225 64.7948V90.3651C33.225 90.5972 33.2819 90.8259 33.3908 91.031C33.4996 91.236 33.657 91.4113 33.8493 91.5415C34.0415 91.6717 34.2627 91.7528 34.4936 91.7777C34.7244 91.8026 34.9578 91.7705 35.1734 91.6844L41.7484 89.0541L48.3234 91.6844C48.539 91.7705 48.7724 91.8026 49.0033 91.7777C49.2341 91.7528 49.4553 91.6717 49.6476 91.5415C49.8398 91.4113 49.9972 91.236 50.1061 91.031C50.2149 90.8259 50.2718 90.5972 50.2719 90.3651V64.7948C50.271 64.0415 49.9714 63.3193 49.4387 62.7867C48.9061 62.2541 48.184 61.9545 47.4307 61.9536Z" />
<path d="M70.1599 60.5331C70.0923 60.5329 70.0249 60.5375 69.958 60.547L69.2616 60.6468C69.2036 60.6554 69.1461 60.6674 69.0896 60.6829C65.5375 61.6526 63.057 67.432 63.057 74.7388C63.057 82.0456 65.5375 87.825 69.0896 88.7947C69.1461 88.8102 69.2036 88.8222 69.2616 88.8308L69.958 88.9307C70.0249 88.9401 70.0923 88.9448 70.1599 88.9445C74.2093 88.9445 77.2627 82.8377 77.2627 74.7388C77.2627 66.6399 74.2093 60.5331 70.1599 60.5331Z" />
<path d="M67.3187 73.3182H63.0902C63.0691 73.7849 63.057 74.258 63.057 74.7388C63.057 82.0456 65.5375 87.825 69.0896 88.7947C69.1461 88.8102 69.2036 88.8222 69.2616 88.8308L69.958 88.9307C70.0249 88.9401 70.0923 88.9448 70.1599 88.9445C70.6455 88.9428 71.1268 88.8531 71.5804 88.6799V77.58C71.5792 76.4501 71.1298 75.3668 70.3309 74.5678C69.5319 73.7689 68.4486 73.3195 67.3187 73.3182Z" />
</svg>
