<svg viewBox="0 0 64 64" fill="none" xmlns="http://www.w3.org/2000/svg">
    <path
        d="M56.6325 14.1026L32.6325 6.10265C32.2219 5.96578 31.7781 5.96578 31.3675 6.10265L7.3675 14.1026C6.96926 14.2354 6.62289 14.4901 6.37746 14.8307C6.13202 15.1712 5.99997 15.5804 6 16.0001V36.0001C6 36.5306 6.21071 37.0393 6.58579 37.4144C6.96086 37.7894 7.46957 38.0001 8 38.0001C8.53043 38.0001 9.03914 37.7894 9.41421 37.4144C9.78929 37.0393 10 36.5306 10 36.0001V18.7751L18.3975 21.5726C16.1664 25.1772 15.4569 29.5197 16.4248 33.6469C17.3928 37.7741 19.959 41.3484 23.56 43.5851C19.06 45.3501 15.17 48.5427 12.325 52.9076C12.177 53.1276 12.0743 53.3747 12.0227 53.6347C11.971 53.8946 11.9716 54.1623 12.0244 54.422C12.0771 54.6818 12.1809 54.9285 12.3298 55.1477C12.4787 55.367 12.6698 55.5545 12.8918 55.6993C13.1138 55.8441 13.3623 55.9433 13.623 55.9912C13.8837 56.0391 14.1513 56.0347 14.4103 55.9782C14.6693 55.9218 14.9144 55.8144 15.1315 55.6624C15.3487 55.5104 15.5334 55.3167 15.675 55.0926C19.4425 49.3126 25.3925 46.0001 32 46.0001C38.6075 46.0001 44.5575 49.3126 48.325 55.0926C48.6183 55.5286 49.0715 55.8317 49.5864 55.9362C50.1014 56.0407 50.6368 55.9384 51.077 55.6514C51.5171 55.3643 51.8266 54.9155 51.9385 54.4021C52.0504 53.8887 51.9557 53.3518 51.675 52.9076C48.83 48.5427 44.925 45.3501 40.44 43.5851C44.0376 41.3485 46.6013 37.7765 47.5691 33.6523C48.5369 29.5282 47.8296 25.1886 45.6025 21.5851L56.6325 17.9101C57.0308 17.7775 57.3773 17.5228 57.6228 17.1822C57.8683 16.8417 58.0004 16.4325 58.0004 16.0126C58.0004 15.5928 57.8683 15.1836 57.6228 14.8431C57.3773 14.5025 57.0308 14.2478 56.6325 14.1151V14.1026ZM44 30.0001C44.0005 31.8973 43.5513 33.7675 42.689 35.4574C41.8268 37.1473 40.5762 38.6087 39.0398 39.7216C37.5034 40.8346 35.7251 41.5674 33.8506 41.86C31.9762 42.1526 30.0591 41.9966 28.2566 41.4047C26.4542 40.8129 24.8177 39.8022 23.4815 38.4555C22.1453 37.1087 21.1474 35.4644 20.5698 33.6573C19.9921 31.8502 19.8512 29.932 20.1585 28.0599C20.4657 26.1878 21.2125 24.4152 22.3375 22.8876L31.3675 25.8876C31.7781 26.0245 32.2219 26.0245 32.6325 25.8876L41.6625 22.8876C43.182 24.9476 44.0012 27.4404 44 30.0001ZM32 21.8926L14.325 16.0001L32 10.1076L49.675 16.0001L32 21.8926Z"
        fill="white" />
</svg>