<svg viewBox="0 0 64 64" fill="none" xmlns="http://www.w3.org/2000/svg">
    <path fill-rule="evenodd" clip-rule="evenodd"
        d="M44.4533 35.0134C48.1067 37.4934 50.6667 40.8534 50.6667 45.3334V53.3334H61.3333V45.3334C61.3333 39.5201 51.8133 36.0801 44.4533 35.0134Z"
        fill="white" />
    <path
        d="M24 31.9998C29.891 31.9998 34.6667 27.2242 34.6667 21.3332C34.6667 15.4421 29.891 10.6665 24 10.6665C18.109 10.6665 13.3333 15.4421 13.3333 21.3332C13.3333 27.2242 18.109 31.9998 24 31.9998Z"
        fill="white" />
    <path fill-rule="evenodd" clip-rule="evenodd"
        d="M40 31.9998C45.8933 31.9998 50.6667 27.2265 50.6667 21.3332C50.6667 15.4398 45.8933 10.6665 40 10.6665C38.7467 10.6665 37.5733 10.9332 36.4533 11.3065C38.7481 14.1444 39.9999 17.6836 39.9999 21.3332C39.9999 24.9828 38.7481 28.5219 36.4533 31.3598C37.5733 31.7332 38.7467 31.9998 40 31.9998ZM24 34.6665C16.88 34.6665 2.66667 38.2398 2.66667 45.3332V53.3332H45.3333V45.3332C45.3333 38.2398 31.12 34.6665 24 34.6665Z"
        fill="white" />
</svg>