<svg viewBox="0 0 64 64" fill="none" xmlns="http://www.w3.org/2000/svg">
    <path
        d="M40.8784 8.22705L28.7237 16.0288L29.9557 16.7034L40.7695 9.76218L59.1114 20.1517L48.5907 26.9045L49.1032 27.1851V28.041L57.3436 22.7515L59.0731 23.7313L49.1031 30.1307V31.5961L57.1822 26.4102L59.0731 27.4814L49.1031 33.8808V35.3462L57.1822 30.1603L59.0731 31.2316L49.1031 37.6309V39.0963L61.6072 31.07L58.5037 29.3123L61.6071 27.3202L58.5036 25.5622L61.607 23.5701L58.6649 21.9034L61.6451 19.9903L40.8784 8.22705ZM44.7617 13.8196C42.132 15.1391 38.6292 15.3623 36.163 14.3674L31.3417 17.4621L47.2046 26.1458L51.7774 23.2108C49.9761 21.7888 50.1261 19.6671 52.1451 18.0021L44.7617 13.8196ZM28.438 18.4376L19.602 24.1993L36.5532 33.9576L36.7195 33.8513C37.032 33.65 37.4732 33.365 37.9997 33.0247C39.0522 32.3443 40.4451 31.4422 41.834 30.5422C43.8342 29.2459 44.865 28.5772 45.8235 27.9554L28.438 18.4376ZM42.8714 18.5838H42.8717C43.2715 18.5862 43.638 18.6719 43.9117 18.8269C44.071 18.9171 44.1946 19.0284 44.2753 19.1544C44.3561 19.2804 44.3925 19.4186 44.3824 19.5611C44.3723 19.7037 44.3159 19.8478 44.2165 19.9853C44.1171 20.1227 43.9766 20.2508 43.803 20.3622C43.6295 20.4736 43.4263 20.5661 43.205 20.6345C42.9837 20.7029 42.7487 20.7458 42.5134 20.7607C42.2781 20.7757 42.047 20.7625 41.8335 20.7217C41.62 20.681 41.4281 20.6136 41.2689 20.5234C40.9473 20.3413 40.778 20.0772 40.7984 19.7893C40.8188 19.5015 41.0272 19.2134 41.3776 18.9884C41.5766 18.8607 41.8143 18.7579 42.073 18.6878C42.3316 18.6178 42.6045 18.5822 42.8714 18.5838ZM15.5685 24.4732L2.39286 32.93L5.33499 34.5967L2.35474 36.5098L5.45824 38.2677L2.35474 40.2599L5.45824 42.0178L2.35474 44.01L23.1216 55.7733L35.6596 47.725V46.26L23.2305 54.238L4.88874 43.8484L6.67061 42.7047L23.1216 52.023L35.6596 43.975V42.51L23.2305 50.488L4.88874 40.0984L6.67061 38.9547L23.1216 48.273L35.6596 40.225V38.76L23.2305 46.738L4.88874 36.3484L6.54749 35.2834L23.16 44.6934L35.6596 36.6699V36.0387L34.9746 35.6444L23.2684 43.1582L4.92711 32.7687L16.7721 25.1657L15.5684 24.4728L15.5685 24.4732ZM18.126 25.9457L12.261 29.71C14.0622 31.1318 13.9122 33.2536 11.8932 34.9188L19.2767 39.1013C21.9064 37.7817 25.4089 37.5585 27.8751 38.5533L33.6207 34.8653L18.1257 25.9455L18.126 25.9457ZM46.8531 29.9694C45.8476 30.6216 44.9609 31.1972 43.0577 32.4304C41.7794 33.2591 40.5007 34.0872 39.2215 34.9146C38.6944 35.2552 38.2521 35.5408 37.9367 35.7435C37.9255 35.751 37.9209 35.7535 37.9099 35.7607V46.5012L46.8532 40.4902L46.8531 29.9694ZM21.7294 32.1544C22.1292 32.1569 22.4957 32.2427 22.7694 32.3978C23.091 32.58 23.2602 32.844 23.2398 33.1319C23.2194 33.4198 23.0111 33.7079 22.6606 33.9328C22.3102 34.1577 21.8464 34.301 21.3712 34.3313C20.8961 34.3615 20.4485 34.2762 20.1269 34.0941C19.8053 33.9119 19.6361 33.6478 19.6564 33.3599C19.6768 33.0721 19.8852 32.784 20.2356 32.559C20.4346 32.4313 20.6723 32.3286 20.931 32.2585C21.1897 32.1885 21.4626 32.1529 21.7294 32.1545V32.1544Z"
        fill="white" />
</svg>