<svg viewBox="0 0 64 64" fill="none" xmlns="http://www.w3.org/2000/svg">
    <path
        d="M0 10C0 9.46957 0.210714 8.96086 0.585786 8.58579C0.960859 8.21071 1.46957 8 2 8H21.992C26.168 8 29.8453 10.1333 31.9947 13.3707C33.0893 11.719 34.576 10.3641 36.3219 9.42694C38.0677 8.48978 40.0185 7.99955 42 8H62C62.5304 8 63.0391 8.21071 63.4142 8.58579C63.7893 8.96086 64 9.46957 64 10V50.168C64 50.4318 63.9478 50.6929 63.8465 50.9365C63.7452 51.18 63.5966 51.4011 63.4095 51.5869C63.2224 51.7728 63.0003 51.9199 62.7561 52.0196C62.5119 52.1193 62.2504 52.1698 61.9867 52.168L41.5013 52.0293C40.4416 52.0218 39.391 52.2249 38.4104 52.6268C37.4298 53.0288 36.5389 53.6215 35.7893 54.3707L33.416 56.7467C33.2303 56.9325 33.0097 57.0799 32.767 57.1805C32.5243 57.2811 32.2641 57.3329 32.0013 57.3329C31.7386 57.3329 31.4784 57.2811 31.2357 57.1805C30.9929 57.0799 30.7724 56.9325 30.5867 56.7467L28.1813 54.344C26.6814 52.8436 24.6469 52.0005 22.5253 52H2C1.46957 52 0.960859 51.7893 0.585786 51.4142C0.210714 51.0391 0 50.5304 0 50L0 10ZM34 50.6187C36.1416 48.9241 38.7971 48.0107 41.528 48.0293L60 48.1547V12H42C39.8783 12 37.8434 12.8429 36.3431 14.3431C34.8429 15.8434 34 17.8783 34 20V50.6187ZM29.992 19.992C29.9899 17.8717 29.1461 15.8389 27.646 14.3403C26.146 12.8418 24.1123 12 21.992 12H4V48H22.5253C25.24 48 27.8747 48.9227 30 50.6133L29.992 19.992Z"
        fill="white" />
</svg>