<svg width="156" height="111" viewBox="0 0 156 111" xmlns="http://www.w3.org/2000/svg">
    <path
        d="M138.802 0.17749H83.47V110.842H138.802C143.205 110.842 147.427 109.093 150.54 105.98C153.653 102.867 155.402 98.6447 155.402 94.2422V16.7771C155.402 12.3746 153.653 8.15245 150.54 5.03941C147.427 1.92638 143.205 0.17749 138.802 0.17749ZM127.736 83.1757H100.07C98.6021 83.1757 97.1947 82.5928 96.157 81.5551C95.1194 80.5174 94.5364 79.11 94.5364 77.6425C94.5364 76.175 95.1194 74.7676 96.157 73.7299C97.1947 72.6922 98.6021 72.1093 100.07 72.1093H127.736C129.203 72.1093 130.611 72.6922 131.648 73.7299C132.686 74.7676 133.269 76.175 133.269 77.6425C133.269 79.11 132.686 80.5174 131.648 81.5551C130.611 82.5928 129.203 83.1757 127.736 83.1757ZM127.736 61.0429H111.136C109.669 61.0429 108.261 60.4599 107.223 59.4222C106.186 58.3845 105.603 56.9771 105.603 55.5096C105.603 54.0421 106.186 52.6348 107.223 51.5971C108.261 50.5594 109.669 49.9764 111.136 49.9764H127.736C129.203 49.9764 130.611 50.5594 131.648 51.5971C132.686 52.6348 133.269 54.0421 133.269 55.5096C133.269 56.9771 132.686 58.3845 131.648 59.4222C130.611 60.4599 129.203 61.0429 127.736 61.0429ZM127.736 38.91H100.07C98.6021 38.91 97.1947 38.327 96.157 37.2894C95.1194 36.2517 94.5364 34.8443 94.5364 33.3768C94.5364 31.9093 95.1194 30.5019 96.157 29.4642C97.1947 28.4265 98.6021 27.8436 100.07 27.8436H127.736C129.203 27.8436 130.611 28.4265 131.648 29.4642C132.686 30.5019 133.269 31.9093 133.269 33.3768C133.269 34.8443 132.686 36.2517 131.648 37.2894C130.611 38.327 129.203 38.91 127.736 38.91Z" />
    <path
        d="M55.804 77.6425C55.804 79.11 55.221 80.5174 54.1833 81.5551C53.1456 82.5928 51.7382 83.1757 50.2707 83.1757C48.8032 83.1757 47.3959 82.5928 46.3582 81.5551C45.3205 80.5174 44.7375 79.11 44.7375 77.6425V0.17749H17.0714C12.6689 0.17749 8.44676 1.92638 5.33373 5.03941C2.22069 8.15245 0.471802 12.3746 0.471802 16.7771V94.2422C0.471802 98.6447 2.22069 102.867 5.33373 105.98C8.44676 109.093 12.6689 110.842 17.0714 110.842H72.4036V0.17749H55.804V77.6425Z" />
</svg>