<svg viewBox="0 0 26 26" xmlns="http://www.w3.org/2000/svg">
    <path fill-rule="evenodd" clip-rule="evenodd"
        d="M18.4245 15.2281C18.2304 15.429 18.123 15.6982 18.1254 15.9775C18.1279 16.2569 18.2399 16.5241 18.4375 16.7216C18.635 16.9192 18.9022 17.0312 19.1816 17.0337C19.4609 17.0361 19.7301 16.9287 19.931 16.7346L23.0346 13.631L23.0815 13.582C23.1944 13.4822 23.2849 13.3596 23.3469 13.2222C23.4088 13.0848 23.4409 12.9358 23.4409 12.7851C23.4409 12.6343 23.4088 12.4853 23.3469 12.348C23.2849 12.2106 23.1944 12.0879 23.0815 11.9881C23.0663 11.9713 23.0507 11.955 23.0346 11.9391L19.931 8.83552C19.8327 8.73376 19.7151 8.65259 19.5852 8.59675C19.4552 8.54091 19.3154 8.51152 19.1739 8.51029C19.0324 8.50906 18.8921 8.53602 18.7612 8.58959C18.6303 8.64316 18.5113 8.72228 18.4113 8.82231C18.3112 8.92235 18.2321 9.0413 18.1786 9.17224C18.125 9.30318 18.098 9.44347 18.0993 9.58494C18.1005 9.72641 18.1299 9.86621 18.1857 9.9962C18.2415 10.1262 18.3227 10.2438 18.4245 10.342L19.8021 11.7196H13.8506C13.568 11.7196 13.297 11.8319 13.0972 12.0317C12.8974 12.2315 12.7852 12.5025 12.7852 12.7851C12.7852 13.0676 12.8974 13.3386 13.0972 13.5384C13.297 13.7382 13.568 13.8505 13.8506 13.8505H19.8021L18.4245 15.2281Z"
    />
    <path fill-rule="evenodd" clip-rule="evenodd"
        d="M5.3269 2.13086C4.4792 2.13086 3.66621 2.46761 3.06679 3.06703C2.46737 3.66645 2.13062 4.47944 2.13062 5.32715V20.2432C2.13062 21.0909 2.46737 21.9039 3.06679 22.5033C3.66621 23.1027 4.4792 23.4395 5.3269 23.4395H15.4485C16.1549 23.4395 16.8324 23.1588 17.3319 22.6593C17.8314 22.1598 18.1121 21.4823 18.1121 20.7759V17.8278C17.6226 17.545 17.2655 17.0795 17.119 16.5335C16.9726 15.9876 17.0489 15.4058 17.3311 14.916H13.8503C13.2852 14.916 12.7432 14.6915 12.3436 14.2919C11.944 13.8923 11.7195 13.3503 11.7195 12.7852C11.7195 12.22 11.944 11.678 12.3436 11.2784C12.7432 10.8788 13.2852 10.6543 13.8503 10.6543H17.3311C17.1911 10.4119 17.1002 10.1442 17.0637 9.86661C17.0271 9.58903 17.0456 9.30697 17.1182 9.03655C17.1907 8.76613 17.3158 8.51266 17.4863 8.29061C17.6569 8.06857 17.8695 7.88231 18.1121 7.74248V4.79443C18.1121 4.08801 17.8314 3.41052 17.3319 2.911C16.8324 2.41149 16.1549 2.13086 15.4485 2.13086H5.3269Z"
    />
</svg>