<svg width="60" height="60" viewBox="0 0 60 60" fill="none" xmlns="http://www.w3.org/2000/svg">
<path d="M15 17.5H27.5C28.163 17.5 28.7989 17.7634 29.2678 18.2322C29.7366 18.7011 30 19.337 30 20C30 20.663 29.7366 21.2989 29.2678 21.7678C28.7989 22.2366 28.163 22.5 27.5 22.5H15C14.337 22.5 13.7011 22.2366 13.2322 21.7678C12.7634 21.2989 12.5 20.663 12.5 20C12.5 19.337 12.7634 18.7011 13.2322 18.2322C13.7011 17.7634 14.337 17.5 15 17.5ZM32.5 37.5H45C45.663 37.5 46.2989 37.7634 46.7678 38.2322C47.2366 38.7011 47.5 39.337 47.5 40C47.5 40.663 47.2366 41.2989 46.7678 41.7678C46.2989 42.2366 45.663 42.5 45 42.5H32.5C31.837 42.5 31.2011 42.2366 30.7322 41.7678C30.2634 41.2989 30 40.663 30 40C30 39.337 30.2634 38.7011 30.7322 38.2322C31.2011 37.7634 31.837 37.5 32.5 37.5ZM15 27.5H45C45.663 27.5 46.2989 27.7634 46.7678 28.2322C47.2366 28.7011 47.5 29.337 47.5 30C47.5 30.663 47.2366 31.2989 46.7678 31.7678C46.2989 32.2366 45.663 32.5 45 32.5H15C14.337 32.5 13.7011 32.2366 13.2322 31.7678C12.7634 31.2989 12.5 30.663 12.5 30C12.5 29.337 12.7634 28.7011 13.2322 28.2322C13.7011 27.7634 14.337 27.5 15 27.5Z" fill="white"/>
</svg>
