<svg width="134" height="136" viewBox="0 0 134 136" xmlns="http://www.w3.org/2000/svg">
<g clip-path="url(#clip0_119_636)">
<path d="M133.553 43.8345H134V94.6845L132.66 97.3845L129.533 100.084H83.08V64.0845L84.8667 64.9845L87.1 66.7845L90.2267 68.1345L93.3534 68.5845L97.82 67.6845L103.18 64.5345L110.327 59.5845L128.193 47.4345L133.553 43.8345Z" />
<path fill-rule="evenodd" clip-rule="evenodd" d="M79.06 0.184448H75.9333L73.2533 0.634448L3.12667 12.7844L0 13.6844V119.884L0.893333 120.334L73.7 134.734L79.06 135.184V0.184448ZM41.9867 42.4845H36.6267L31.7134 44.7345L27.6934 48.3345L24.5667 52.8345L22.7801 57.3345L21.8867 62.2845V72.1845L23.6734 78.0345L27.2467 84.3345L31.7134 88.3845L37.0734 90.6345H41.5401L44.6667 89.7345L48.6867 87.4845L52.2601 83.8845L55.3867 78.4845L57.6201 70.8345V62.7345L56.2801 56.8845L54.0467 51.9345L51.3667 48.3345L46.9001 44.2845L41.9867 42.4845Z" />
<path d="M83.08 27.1844H129.533L132.213 28.5344L133.553 30.3344L134 33.4844L126.853 37.9844L107.647 51.0344L93.3534 60.4844L88.44 57.7844L83.08 54.1844V27.1844Z" />
<path d="M37.52 52.3845H41.54L45.1133 55.5345L47.3467 60.0345L47.7933 62.2845V70.8345L46.0067 75.7845L43.3267 79.3845L40.6467 80.7345H37.9667L35.2867 78.9345L33.0533 76.2345L31.2667 72.1845L30.82 69.4845V62.2845L32.6067 57.3345L35.2867 53.7345L37.52 52.3845Z" />
</g>
<defs>
<clipPath id="clip0_119_636">
<rect width="134" height="135" transform="translate(0 0.184448)"/>
</clipPath>
</defs>
</svg>
