<svg viewBox="0 0 27 26" xmlns="http://www.w3.org/2000/svg">
    <path fill-rule="evenodd" clip-rule="evenodd"
        d="M24.3835 14.1475V16.419C24.3835 17.3629 24.3835 18.1769 24.2962 18.829C24.2024 19.5268 23.9904 20.197 23.447 20.7393C22.9037 21.2826 22.2346 21.4947 21.5367 21.5884C20.8847 21.6758 20.0707 21.6758 19.1267 21.6758H12.5935C11.6495 21.6758 10.8355 21.6758 10.1835 21.5884C9.48564 21.4947 8.81549 21.2826 8.27318 20.7393C7.72981 20.1959 7.51779 19.5268 7.42403 18.829C7.33667 18.1769 7.33667 17.3629 7.33667 16.419V14.1475C7.33667 13.2035 7.33667 12.3895 7.42403 11.7375C7.51779 11.0396 7.72981 10.3694 8.27318 9.82714C8.81655 9.28377 9.48564 9.07175 10.1835 8.97799C10.8355 8.89062 11.6495 8.89063 12.5935 8.89063H19.1267C20.0707 8.89063 20.8847 8.89062 21.5367 8.97799C22.2346 9.07175 22.9047 9.28377 23.447 9.82714C23.9904 10.3705 24.2024 11.0396 24.2962 11.7375C24.3835 12.3895 24.3835 13.2035 24.3835 14.1475ZM12.6638 15.2832C12.6638 14.8635 12.7465 14.4478 12.9071 14.06C13.0677 13.6722 13.3032 13.3199 13.6 13.0231C13.8968 12.7263 14.2491 12.4908 14.6369 12.3302C15.0247 12.1696 15.4404 12.0869 15.8601 12.0869C16.2799 12.0869 16.6955 12.1696 17.0833 12.3302C17.4711 12.4908 17.8234 12.7263 18.1202 13.0231C18.417 13.3199 18.6525 13.6722 18.8131 14.06C18.9737 14.4478 19.0564 14.8635 19.0564 15.2832C19.0564 16.1309 18.7196 16.9439 18.1202 17.5433C17.5208 18.1427 16.7078 18.4795 15.8601 18.4795C15.0124 18.4795 14.1994 18.1427 13.6 17.5433C13.0006 16.9439 12.6638 16.1309 12.6638 15.2832Z"
    />
    <path fill-rule="evenodd" clip-rule="evenodd"
        d="M20.1187 7.82946C19.813 7.8252 19.5008 7.8252 19.1833 7.8252H12.5361C11.6379 7.8252 10.7643 7.8252 10.0408 7.92215C9.22472 8.03189 8.29354 8.29931 7.51897 9.07281C6.7444 9.84738 6.47698 10.7796 6.36831 11.5958C6.27135 12.3192 6.27135 13.1918 6.27135 14.091V16.4754C6.27135 16.7876 6.27135 17.0966 6.27561 17.397C6.2088 17.3941 6.14202 17.3901 6.07531 17.3853C5.67791 17.3533 5.28157 17.2862 4.89588 17.103C4.2343 16.7874 3.70129 16.254 3.38617 15.5922C3.20292 15.2086 3.13473 14.8112 3.10383 14.4138C3.07796 13.9597 3.06837 13.5048 3.07506 13.0501V9.88574C3.07506 8.94177 3.07506 8.12778 3.16243 7.47573C3.25619 6.77788 3.46821 6.10772 4.01158 5.56542C4.55495 5.02205 5.22404 4.81003 5.92189 4.71627C6.57393 4.62891 7.38792 4.62891 8.33189 4.62891H16.4345C16.8841 4.62891 17.2708 4.62891 17.616 4.70349C18.2107 4.83511 18.7553 5.13388 19.1859 5.56461C19.6164 5.99534 19.9149 6.54012 20.0463 7.1348C20.0942 7.34788 20.1113 7.57802 20.1187 7.82946Z"
    />
</svg>