<svg viewBox="0 0 27 26" xmlns="http://www.w3.org/2000/svg">
    <g clip-path="url(#clip0_117_300)">
        <path
            d="M19.4474 0.785156H21.9737L23.8684 2.38516L24.5 3.66516L24.1842 5.90516L21.9737 8.46516L18.5 11.9852L17.8684 13.5852L19.1316 14.2252L23.8684 19.0252L24.5 20.3052L24.1842 22.5452L22.6053 24.4652L21.9737 24.7852H19.4474L16.9211 22.5452L13.4474 19.0252L11.5526 15.1852V14.2252L8.71053 15.5052L6.18421 17.7452L3.34211 20.6252L3.65789 21.9052H4.92105L9.65789 17.1052L10.6053 16.7852L11.5526 18.3852L10.9211 19.6652L6.18421 24.4652L5.55263 24.7852H3.02632L1.13158 23.1852L0.5 20.9452L1.44737 18.7052L6.18421 13.9052L8.71053 12.3052L11.5526 11.6652L12.1842 8.78516L14.0789 5.90516L18.8158 1.10516L19.4474 0.785156ZM20.3947 3.02516L15.0263 8.46516L13.7632 11.6652L15.6579 11.9852L17.8684 9.10516L21.9737 4.94516L21.6579 3.66516L20.3947 3.02516ZM14.0789 14.2252L14.3947 15.8252L15.6579 17.7452L20.3947 22.5452L21.6579 21.9052L21.9737 20.6252L16.6053 15.1852L14.7105 14.2252H14.0789Z"
        />
    </g>
    <defs>
        <clipPath id="clip0_117_300">
            <rect width="25.5703" height="25.5703" fill="white"
                transform="translate(0.944458 0.078125)" />
        </clipPath>
    </defs>
</svg>